<?xml version="1.0" encoding="UTF-8" standalone="no"?>
<!DOCTYPE svg PUBLIC "-//W3C//DTD SVG 1.1//EN"
 "http://www.w3.org/Graphics/SVG/1.1/DTD/svg11.dtd">
<!-- Generated by graphviz version 14.0.2 (20251019.1705)
 -->
<!-- Title: cornell_box.cuh Pages: 1 -->
<svg width="273pt" height="140pt"
 viewBox="0.00 0.00 273.00 140.00" xmlns="http://www.w3.org/2000/svg" xmlns:xlink="http://www.w3.org/1999/xlink">
<g id="graph0" class="graph" transform="scale(1 1) rotate(0) translate(4 136)">
<title>cornell_box.cuh</title>
<!-- Node1 -->
<g id="Node000001" class="node">
<title>Node1</title>
<g id="a_Node000001"><a xlink:title="Cornell box scene builder (5 walls + ground plane).">
<polygon fill="#999999" stroke="#666666" points="193.5,-132 109.25,-132 109.25,-112 193.5,-112 193.5,-132"/>
<text xml:space="preserve" text-anchor="middle" x="151.38" y="-118.5" font-family="Helvetica,sans-Serif" font-size="10.00">cornell_box.cuh</text>
</a>
</g>
</g>
<!-- Node2 -->
<g id="Node000002" class="node">
<title>Node2</title>
<g id="a_Node000002"><a xlink:href="world__build_8cuh.html" target="_top" xlink:title="Centralized scene assembly for CPU &amp; GPU renderers (host&#45;only).">
<polygon fill="white" stroke="#666666" points="193.12,-76 109.62,-76 109.62,-56 193.12,-56 193.12,-76"/>
<text xml:space="preserve" text-anchor="middle" x="151.38" y="-62.5" font-family="Helvetica,sans-Serif" font-size="10.00">world_build.cuh</text>
</a>
</g>
</g>
<!-- Node1&#45;&gt;Node2 -->
<g id="edge1_Node000001_Node000002" class="edge">
<title>Node1&#45;&gt;Node2</title>
<g id="a_edge1_Node000001_Node000002"><a xlink:title=" ">
<path fill="none" stroke="#63b8ff" d="M151.38,-100.13C151.38,-91.9 151.38,-82.85 151.38,-76.3"/>
<polygon fill="#63b8ff" stroke="#63b8ff" points="147.88,-100.08 151.38,-110.08 154.88,-100.08 147.88,-100.08"/>
</a>
</g>
</g>
<!-- Node3 -->
<g id="Node000003" class="node">
<title>Node3</title>
<g id="a_Node000003"><a xlink:href="cpu__raytracer_8cu.html" target="_top" xlink:title="CPU reference renderer: matches GPU scene/light/shader for visual parity.">
<polygon fill="white" stroke="#666666" points="88.75,-20 0,-20 0,0 88.75,0 88.75,-20"/>
<text xml:space="preserve" text-anchor="middle" x="44.38" y="-6.5" font-family="Helvetica,sans-Serif" font-size="10.00">cpu_raytracer.cu</text>
</a>
</g>
</g>
<!-- Node2&#45;&gt;Node3 -->
<g id="edge2_Node000002_Node000003" class="edge">
<title>Node2&#45;&gt;Node3</title>
<g id="a_edge2_Node000002_Node000003"><a xlink:title=" ">
<path fill="none" stroke="#63b8ff" d="M122.6,-50.48C103.73,-40.96 79.6,-28.78 63.16,-20.48"/>
<polygon fill="#63b8ff" stroke="#63b8ff" points="120.88,-53.53 131.39,-54.91 124.04,-47.28 120.88,-53.53"/>
</a>
</g>
</g>
<!-- Node4 -->
<g id="Node000004" class="node">
<title>Node4</title>
<g id="a_Node000004"><a xlink:href="device__scene_8cu.html" target="_top" xlink:title="Upload scene buffers and debug flags to device constant memory.">
<polygon fill="white" stroke="#666666" points="196.12,-20 106.62,-20 106.62,0 196.12,0 196.12,-20"/>
<text xml:space="preserve" text-anchor="middle" x="151.38" y="-6.5" font-family="Helvetica,sans-Serif" font-size="10.00">device_scene.cu</text>
</a>
</g>
</g>
<!-- Node2&#45;&gt;Node4 -->
<g id="edge3_Node000002_Node000004" class="edge">
<title>Node2&#45;&gt;Node4</title>
<g id="a_edge3_Node000002_Node000004"><a xlink:title=" ">
<path fill="none" stroke="#63b8ff" d="M151.38,-44.13C151.38,-35.9 151.38,-26.85 151.38,-20.3"/>
<polygon fill="#63b8ff" stroke="#63b8ff" points="147.88,-44.08 151.38,-54.08 154.88,-44.08 147.88,-44.08"/>
</a>
</g>
</g>
<!-- Node5 -->
<g id="Node000005" class="node">
<title>Node5</title>
<g id="a_Node000005"><a xlink:href="main_8cu.html" target="_top" xlink:title="Entry point: runs GPU + CPU renderers, saves images, prints timing.">
<polygon fill="white" stroke="#666666" points="264.62,-20 214.12,-20 214.12,0 264.62,0 264.62,-20"/>
<text xml:space="preserve" text-anchor="middle" x="239.38" y="-6.5" font-family="Helvetica,sans-Serif" font-size="10.00">main.cu</text>
</a>
</g>
</g>
<!-- Node2&#45;&gt;Node5 -->
<g id="edge4_Node000002_Node000005" class="edge">
<title>Node2&#45;&gt;Node5</title>
<g id="a_edge4_Node000002_Node000005"><a xlink:title=" ">
<path fill="none" stroke="#63b8ff" d="M176.13,-49.81C191.48,-40.39 210.72,-28.58 223.93,-20.48"/>
<polygon fill="#63b8ff" stroke="#63b8ff" points="174.69,-46.59 167.99,-54.8 178.35,-52.56 174.69,-46.59"/>
</a>
</g>
</g>
</g>
</svg>
