<?xml version="1.0" encoding="UTF-8" standalone="no"?>
<!DOCTYPE svg PUBLIC "-//W3C//DTD SVG 1.1//EN"
 "http://www.w3.org/Graphics/SVG/1.1/DTD/svg11.dtd">
<!-- Generated by graphviz version 14.0.2 (20251019.1705)
 -->
<!-- Title: cornell_box.cuh Pages: 1 -->
<svg width="424pt" height="308pt"
 viewBox="0.00 0.00 424.00 308.00" xmlns="http://www.w3.org/2000/svg" xmlns:xlink="http://www.w3.org/1999/xlink">
<g id="graph0" class="graph" transform="scale(1 1) rotate(0) translate(4 304)">
<title>cornell_box.cuh</title>
<!-- Node1 -->
<g id="Node000001" class="node">
<title>Node1</title>
<g id="a_Node000001"><a xlink:title="Cornell box scene builder (5 walls + ground plane).">
<polygon fill="#999999" stroke="#666666" points="339.25,-300 255,-300 255,-280 339.25,-280 339.25,-300"/>
<text xml:space="preserve" text-anchor="middle" x="297.12" y="-286.5" font-family="Helvetica,sans-Serif" font-size="10.00">cornell_box.cuh</text>
</a>
</g>
</g>
<!-- Node2 -->
<g id="Node000002" class="node">
<title>Node2</title>
<g id="a_Node000002"><a xlink:href="quad_8cuh.html" target="_top" xlink:title="Quad primitive for ray tracing.">
<polygon fill="white" stroke="#666666" points="307.75,-244 208.5,-244 208.5,-224 307.75,-224 307.75,-244"/>
<text xml:space="preserve" text-anchor="middle" x="258.12" y="-230.5" font-family="Helvetica,sans-Serif" font-size="10.00">geometry/quad.cuh</text>
</a>
</g>
</g>
<!-- Node1&#45;&gt;Node2 -->
<g id="edge1_Node000001_Node000002" class="edge">
<title>Node1&#45;&gt;Node2</title>
<g id="a_edge1_Node000001_Node000002"><a xlink:title=" ">
<path fill="none" stroke="#63b8ff" d="M290.33,-279.59C285.13,-272.39 277.79,-262.23 271.44,-253.43"/>
<polygon fill="#63b8ff" stroke="#63b8ff" points="274.42,-251.58 265.73,-245.53 268.74,-255.68 274.42,-251.58"/>
</a>
</g>
</g>
<!-- Node12 -->
<g id="Node000012" class="node">
<title>Node12</title>
<g id="a_Node000012"><a xlink:href="material_8cuh.html" target="_top" xlink:title="Surface material definitions and presets.">
<polygon fill="white" stroke="#666666" points="415.62,-188 324.62,-188 324.62,-168 415.62,-168 415.62,-188"/>
<text xml:space="preserve" text-anchor="middle" x="370.12" y="-174.5" font-family="Helvetica,sans-Serif" font-size="10.00">core/material.cuh</text>
</a>
</g>
</g>
<!-- Node1&#45;&gt;Node12 -->
<g id="edge20_Node000001_Node000012" class="edge">
<title>Node1&#45;&gt;Node12</title>
<g id="a_edge20_Node000001_Node000012"><a xlink:title=" ">
<path fill="none" stroke="#63b8ff" d="M303.35,-279.62C315.36,-261.52 341.95,-221.45 357.71,-197.7"/>
<polygon fill="#63b8ff" stroke="#63b8ff" points="360.47,-199.88 363.08,-189.62 354.63,-196.01 360.47,-199.88"/>
</a>
</g>
</g>
<!-- Node3 -->
<g id="Node000003" class="node">
<title>Node3</title>
<g id="a_Node000003"><a xlink:href="macros_8cuh.html" target="_top" xlink:title="Project&#45;wide CUDA/host qualifiers and debug/guard macros.">
<polygon fill="white" stroke="#666666" points="264.5,-76 175.75,-76 175.75,-56 264.5,-56 264.5,-76"/>
<text xml:space="preserve" text-anchor="middle" x="220.12" y="-62.5" font-family="Helvetica,sans-Serif" font-size="10.00">core/macros.cuh</text>
</a>
</g>
</g>
<!-- Node2&#45;&gt;Node3 -->
<g id="edge2_Node000002_Node000003" class="edge">
<title>Node2&#45;&gt;Node3</title>
<g id="a_edge2_Node000002_Node000003"><a xlink:title=" ">
<path fill="none" stroke="#63b8ff" d="M255.97,-223.6C249.99,-197.46 233.06,-123.48 224.79,-87.36"/>
<polygon fill="#63b8ff" stroke="#63b8ff" points="228.23,-86.74 222.59,-77.77 221.41,-88.3 228.23,-86.74"/>
</a>
</g>
</g>
<!-- Node4 -->
<g id="Node000004" class="node">
<title>Node4</title>
<g id="a_Node000004"><a xlink:title=" ">
<polygon fill="#e0e0e0" stroke="#999999" points="343.5,-20 260.75,-20 260.75,0 343.5,0 343.5,-20"/>
<text xml:space="preserve" text-anchor="middle" x="302.12" y="-6.5" font-family="Helvetica,sans-Serif" font-size="10.00">cuda_runtime.h</text>
</a>
</g>
</g>
<!-- Node2&#45;&gt;Node4 -->
<g id="edge19_Node000002_Node000004" class="edge">
<title>Node2&#45;&gt;Node4</title>
<g id="a_edge19_Node000002_Node000004"><a xlink:title=" ">
<path fill="none" stroke="#63b8ff" d="M259.96,-223.74C266.51,-190.67 288.88,-77.83 298.1,-31.31"/>
<polygon fill="#63b8ff" stroke="#63b8ff" points="301.48,-32.27 299.99,-21.78 294.61,-30.91 301.48,-32.27"/>
</a>
</g>
</g>
<!-- Node7 -->
<g id="Node000007" class="node">
<title>Node7</title>
<g id="a_Node000007"><a xlink:href="numerics_8cuh.html" target="_top" xlink:title="Small numeric helpers and constants (angles, tolerances, clamps).">
<polygon fill="white" stroke="#666666" points="96.25,-132 0,-132 0,-112 96.25,-112 96.25,-132"/>
<text xml:space="preserve" text-anchor="middle" x="48.12" y="-118.5" font-family="Helvetica,sans-Serif" font-size="10.00">core/numerics.cuh</text>
</a>
</g>
</g>
<!-- Node2&#45;&gt;Node7 -->
<g id="edge6_Node000002_Node000007" class="edge">
<title>Node2&#45;&gt;Node7</title>
<g id="a_edge6_Node000002_Node000007"><a xlink:title=" ">
<path fill="none" stroke="#63b8ff" d="M227.92,-223.64C203.76,-215.63 169.37,-203.02 141.12,-188 114.46,-173.83 86.39,-153.32 68.15,-139.15"/>
<polygon fill="#63b8ff" stroke="#63b8ff" points="70.78,-136.77 60.76,-133.32 66.44,-142.26 70.78,-136.77"/>
</a>
</g>
</g>
<!-- Node10 -->
<g id="Node000010" class="node">
<title>Node10</title>
<g id="a_Node000010"><a xlink:href="vec3_8cuh.html" target="_top" xlink:title="Basic 3D vector type for points, directions, and colors.">
<polygon fill="white" stroke="#666666" points="191.88,-132 114.38,-132 114.38,-112 191.88,-112 191.88,-132"/>
<text xml:space="preserve" text-anchor="middle" x="153.12" y="-118.5" font-family="Helvetica,sans-Serif" font-size="10.00">core/vec3.cuh</text>
</a>
</g>
</g>
<!-- Node2&#45;&gt;Node10 -->
<g id="edge10_Node000002_Node000010" class="edge">
<title>Node2&#45;&gt;Node10</title>
<g id="a_edge10_Node000002_Node000010"><a xlink:title=" ">
<path fill="none" stroke="#63b8ff" d="M208.17,-224.65C186.84,-218.35 163.95,-207.3 151.12,-188 142.43,-174.91 143.78,-156.83 146.83,-143.06"/>
<polygon fill="#63b8ff" stroke="#63b8ff" points="150.11,-144.34 149.33,-133.77 143.35,-142.51 150.11,-144.34"/>
</a>
</g>
</g>
<!-- Node11 -->
<g id="Node000011" class="node">
<title>Node11</title>
<g id="a_Node000011"><a xlink:href="ray_8cuh.html" target="_top" xlink:title="Mathematical ray type for 3D space.">
<polygon fill="white" stroke="#666666" points="229.75,-188 160.5,-188 160.5,-168 229.75,-168 229.75,-188"/>
<text xml:space="preserve" text-anchor="middle" x="195.12" y="-174.5" font-family="Helvetica,sans-Serif" font-size="10.00">core/ray.cuh</text>
</a>
</g>
</g>
<!-- Node2&#45;&gt;Node11 -->
<g id="edge13_Node000002_Node000011" class="edge">
<title>Node2&#45;&gt;Node11</title>
<g id="a_edge13_Node000002_Node000011"><a xlink:title=" ">
<path fill="none" stroke="#63b8ff" d="M247.15,-223.59C238.21,-215.93 225.35,-204.91 214.66,-195.75"/>
<polygon fill="#63b8ff" stroke="#63b8ff" points="216.99,-193.13 207.12,-189.28 212.44,-198.45 216.99,-193.13"/>
</a>
</g>
</g>
<!-- Node2&#45;&gt;Node12 -->
<g id="edge16_Node000002_Node000012" class="edge">
<title>Node2&#45;&gt;Node12</title>
<g id="a_edge16_Node000002_Node000012"><a xlink:title=" ">
<path fill="none" stroke="#63b8ff" d="M277.63,-223.59C294.87,-215.28 320.28,-203.03 340.11,-193.47"/>
<polygon fill="#63b8ff" stroke="#63b8ff" points="341.61,-196.63 349.1,-189.14 338.57,-190.33 341.61,-196.63"/>
</a>
</g>
</g>
<!-- Node3&#45;&gt;Node4 -->
<g id="edge3_Node000003_Node000004" class="edge">
<title>Node3&#45;&gt;Node4</title>
<g id="a_edge3_Node000003_Node000004"><a xlink:title=" ">
<path fill="none" stroke="#63b8ff" d="M234.41,-55.59C246.56,-47.59 264.26,-35.93 278.52,-26.54"/>
<polygon fill="#63b8ff" stroke="#63b8ff" points="280.04,-29.73 286.47,-21.31 276.19,-23.89 280.04,-29.73"/>
</a>
</g>
</g>
<!-- Node5 -->
<g id="Node000005" class="node">
<title>Node5</title>
<g id="a_Node000005"><a xlink:title=" ">
<polygon fill="#e0e0e0" stroke="#999999" points="180.25,-20 138,-20 138,0 180.25,0 180.25,-20"/>
<text xml:space="preserve" text-anchor="middle" x="159.12" y="-6.5" font-family="Helvetica,sans-Serif" font-size="10.00">cstdio</text>
</a>
</g>
</g>
<!-- Node3&#45;&gt;Node5 -->
<g id="edge4_Node000003_Node000005" class="edge">
<title>Node3&#45;&gt;Node5</title>
<g id="a_edge4_Node000003_Node000005"><a xlink:title=" ">
<path fill="none" stroke="#63b8ff" d="M209.5,-55.59C200.84,-47.93 188.39,-36.91 178.04,-27.75"/>
<polygon fill="#63b8ff" stroke="#63b8ff" points="180.57,-25.31 170.76,-21.3 175.93,-30.55 180.57,-25.31"/>
</a>
</g>
</g>
<!-- Node6 -->
<g id="Node000006" class="node">
<title>Node6</title>
<g id="a_Node000006"><a xlink:title=" ">
<polygon fill="#e0e0e0" stroke="#999999" points="242.38,-20 197.88,-20 197.88,0 242.38,0 242.38,-20"/>
<text xml:space="preserve" text-anchor="middle" x="220.12" y="-6.5" font-family="Helvetica,sans-Serif" font-size="10.00">cstdlib</text>
</a>
</g>
</g>
<!-- Node3&#45;&gt;Node6 -->
<g id="edge5_Node000003_Node000006" class="edge">
<title>Node3&#45;&gt;Node6</title>
<g id="a_edge5_Node000003_Node000006"><a xlink:title=" ">
<path fill="none" stroke="#63b8ff" d="M220.12,-55.59C220.12,-49.01 220.12,-39.96 220.12,-31.73"/>
<polygon fill="#63b8ff" stroke="#63b8ff" points="223.63,-31.81 220.13,-21.81 216.63,-31.81 223.63,-31.81"/>
</a>
</g>
</g>
<!-- Node7&#45;&gt;Node3 -->
<g id="edge7_Node000007_Node000003" class="edge">
<title>Node7&#45;&gt;Node3</title>
<g id="a_edge7_Node000007_Node000003"><a xlink:title=" ">
<path fill="none" stroke="#63b8ff" d="M78.09,-111.59C106.03,-102.82 147.96,-89.66 179.02,-79.9"/>
<polygon fill="#63b8ff" stroke="#63b8ff" points="179.99,-83.27 188.49,-76.93 177.9,-76.59 179.99,-83.27"/>
</a>
</g>
</g>
<!-- Node8 -->
<g id="Node000008" class="node">
<title>Node8</title>
<g id="a_Node000008"><a xlink:title=" ">
<polygon fill="#e0e0e0" stroke="#999999" points="143.62,-76 100.62,-76 100.62,-56 143.62,-56 143.62,-76"/>
<text xml:space="preserve" text-anchor="middle" x="122.12" y="-62.5" font-family="Helvetica,sans-Serif" font-size="10.00">cmath</text>
</a>
</g>
</g>
<!-- Node7&#45;&gt;Node8 -->
<g id="edge8_Node000007_Node000008" class="edge">
<title>Node7&#45;&gt;Node8</title>
<g id="a_edge8_Node000007_Node000008"><a xlink:title=" ">
<path fill="none" stroke="#63b8ff" d="M61.01,-111.59C71.84,-103.7 87.54,-92.24 100.31,-82.92"/>
<polygon fill="#63b8ff" stroke="#63b8ff" points="102.15,-85.91 108.16,-77.19 98.02,-80.26 102.15,-85.91"/>
</a>
</g>
</g>
<!-- Node9 -->
<g id="Node000009" class="node">
<title>Node9</title>
<g id="a_Node000009"><a xlink:title=" ">
<polygon fill="#e0e0e0" stroke="#999999" points="68.12,-76 28.12,-76 28.12,-56 68.12,-56 68.12,-76"/>
<text xml:space="preserve" text-anchor="middle" x="48.12" y="-62.5" font-family="Helvetica,sans-Serif" font-size="10.00">cfloat</text>
</a>
</g>
</g>
<!-- Node7&#45;&gt;Node9 -->
<g id="edge9_Node000007_Node000009" class="edge">
<title>Node7&#45;&gt;Node9</title>
<g id="a_edge9_Node000007_Node000009"><a xlink:title=" ">
<path fill="none" stroke="#63b8ff" d="M48.12,-111.59C48.12,-105.01 48.12,-95.96 48.12,-87.73"/>
<polygon fill="#63b8ff" stroke="#63b8ff" points="51.63,-87.81 48.13,-77.81 44.63,-87.81 51.63,-87.81"/>
</a>
</g>
</g>
<!-- Node10&#45;&gt;Node3 -->
<g id="edge12_Node000010_Node000003" class="edge">
<title>Node10&#45;&gt;Node3</title>
<g id="a_edge12_Node000010_Node000003"><a xlink:title=" ">
<path fill="none" stroke="#63b8ff" d="M164.8,-111.59C174.4,-103.85 188.25,-92.69 199.69,-83.47"/>
<polygon fill="#63b8ff" stroke="#63b8ff" points="201.82,-86.25 207.41,-77.25 197.43,-80.8 201.82,-86.25"/>
</a>
</g>
</g>
<!-- Node10&#45;&gt;Node8 -->
<g id="edge11_Node000010_Node000008" class="edge">
<title>Node10&#45;&gt;Node8</title>
<g id="a_edge11_Node000010_Node000008"><a xlink:title=" ">
<path fill="none" stroke="#63b8ff" d="M147.73,-111.59C143.68,-104.55 138.01,-94.67 133.03,-86"/>
<polygon fill="#63b8ff" stroke="#63b8ff" points="136.23,-84.54 128.22,-77.61 130.16,-88.03 136.23,-84.54"/>
</a>
</g>
</g>
<!-- Node11&#45;&gt;Node3 -->
<g id="edge15_Node000011_Node000003" class="edge">
<title>Node11&#45;&gt;Node3</title>
<g id="a_edge15_Node000011_Node000003"><a xlink:title=" ">
<path fill="none" stroke="#63b8ff" d="M197.26,-167.62C201.28,-149.92 210.07,-111.24 215.51,-87.32"/>
<polygon fill="#63b8ff" stroke="#63b8ff" points="218.86,-88.36 217.66,-77.83 212.03,-86.81 218.86,-88.36"/>
</a>
</g>
</g>
<!-- Node11&#45;&gt;Node10 -->
<g id="edge14_Node000011_Node000010" class="edge">
<title>Node11&#45;&gt;Node10</title>
<g id="a_edge14_Node000011_Node000010"><a xlink:title=" ">
<path fill="none" stroke="#63b8ff" d="M187.81,-167.59C182.15,-160.32 174.14,-150.02 167.24,-141.15"/>
<polygon fill="#63b8ff" stroke="#63b8ff" points="170.19,-139.24 161.29,-133.49 164.66,-143.54 170.19,-139.24"/>
</a>
</g>
</g>
<!-- Node12&#45;&gt;Node3 -->
<g id="edge18_Node000012_Node000003" class="edge">
<title>Node12&#45;&gt;Node3</title>
<g id="a_edge18_Node000012_Node000003"><a xlink:title=" ">
<path fill="none" stroke="#63b8ff" d="M357.34,-167.62C331.65,-148.79 273.56,-106.18 241.82,-82.91"/>
<polygon fill="#63b8ff" stroke="#63b8ff" points="244.24,-80.34 234.1,-77.25 240.1,-85.99 244.24,-80.34"/>
</a>
</g>
</g>
<!-- Node12&#45;&gt;Node4 -->
<g id="edge17_Node000012_Node000004" class="edge">
<title>Node12&#45;&gt;Node4</title>
<g id="a_edge17_Node000012_Node000004"><a xlink:title=" ">
<path fill="none" stroke="#63b8ff" d="M366.27,-167.6C355.52,-141.35 325,-66.84 310.27,-30.89"/>
<polygon fill="#63b8ff" stroke="#63b8ff" points="313.54,-29.62 306.51,-21.7 307.06,-32.28 313.54,-29.62"/>
</a>
</g>
</g>
</g>
</svg>
