<?xml version="1.0" encoding="UTF-8" standalone="no"?>
<!DOCTYPE svg PUBLIC "-//W3C//DTD SVG 1.1//EN"
 "http://www.w3.org/Graphics/SVG/1.1/DTD/svg11.dtd">
<!-- Generated by graphviz version 14.0.2 (20251019.1705)
 -->
<!-- Title: defaults.cuh Pages: 1 -->
<svg width="251pt" height="84pt"
 viewBox="0.00 0.00 251.00 84.00" xmlns="http://www.w3.org/2000/svg" xmlns:xlink="http://www.w3.org/1999/xlink">
<g id="graph0" class="graph" transform="scale(1 1) rotate(0) translate(4 80)">
<title>defaults.cuh</title>
<!-- Node1 -->
<g id="Node000001" class="node">
<title>Node1</title>
<g id="a_Node000001"><a xlink:title="Default rendering settings shared by CPU and GPU paths.">
<polygon fill="#999999" stroke="#666666" points="167,-76 97.75,-76 97.75,-56 167,-56 167,-76"/>
<text xml:space="preserve" text-anchor="middle" x="132.38" y="-62.5" font-family="Helvetica,sans-Serif" font-size="10.00">defaults.cuh</text>
</a>
</g>
</g>
<!-- Node2 -->
<g id="Node000002" class="node">
<title>Node2</title>
<g id="a_Node000002"><a xlink:href="cpu__raytracer_8cu.html" target="_top" xlink:title="CPU reference renderer: matches GPU scene/light/shader for visual parity.">
<polygon fill="white" stroke="#666666" points="88.75,-20 0,-20 0,0 88.75,0 88.75,-20"/>
<text xml:space="preserve" text-anchor="middle" x="44.38" y="-6.5" font-family="Helvetica,sans-Serif" font-size="10.00">cpu_raytracer.cu</text>
</a>
</g>
</g>
<!-- Node1&#45;&gt;Node2 -->
<g id="edge1_Node000001_Node000002" class="edge">
<title>Node1&#45;&gt;Node2</title>
<g id="a_edge1_Node000001_Node000002"><a xlink:title=" ">
<path fill="none" stroke="#63b8ff" d="M107.62,-49.81C92.27,-40.39 73.03,-28.58 59.82,-20.48"/>
<polygon fill="#63b8ff" stroke="#63b8ff" points="105.4,-52.56 115.76,-54.8 109.06,-46.59 105.4,-52.56"/>
</a>
</g>
</g>
<!-- Node3 -->
<g id="Node000003" class="node">
<title>Node3</title>
<g id="a_Node000003"><a xlink:href="main_8cu.html" target="_top" xlink:title="Entry point: runs GPU + CPU renderers, saves images, prints timing.">
<polygon fill="white" stroke="#666666" points="157.62,-20 107.12,-20 107.12,0 157.62,0 157.62,-20"/>
<text xml:space="preserve" text-anchor="middle" x="132.38" y="-6.5" font-family="Helvetica,sans-Serif" font-size="10.00">main.cu</text>
</a>
</g>
</g>
<!-- Node1&#45;&gt;Node3 -->
<g id="edge2_Node000001_Node000003" class="edge">
<title>Node1&#45;&gt;Node3</title>
<g id="a_edge2_Node000001_Node000003"><a xlink:title=" ">
<path fill="none" stroke="#63b8ff" d="M132.38,-44.13C132.38,-35.9 132.38,-26.85 132.38,-20.3"/>
<polygon fill="#63b8ff" stroke="#63b8ff" points="128.88,-44.08 132.38,-54.08 135.88,-44.08 128.88,-44.08"/>
</a>
</g>
</g>
<!-- Node4 -->
<g id="Node000004" class="node">
<title>Node4</title>
<g id="a_Node000004"><a xlink:href="raytracer_8cu.html" target="_top" xlink:title="GPU primary&#45;ray kernel: shade one pixel per thread and write RGB.">
<polygon fill="white" stroke="#666666" points="243.25,-20 175.5,-20 175.5,0 243.25,0 243.25,-20"/>
<text xml:space="preserve" text-anchor="middle" x="209.38" y="-6.5" font-family="Helvetica,sans-Serif" font-size="10.00">raytracer.cu</text>
</a>
</g>
</g>
<!-- Node1&#45;&gt;Node4 -->
<g id="edge3_Node000001_Node000004" class="edge">
<title>Node1&#45;&gt;Node4</title>
<g id="a_edge3_Node000001_Node000004"><a xlink:title=" ">
<path fill="none" stroke="#63b8ff" d="M155.19,-49C168.42,-39.72 184.63,-28.35 195.86,-20.48"/>
<polygon fill="#63b8ff" stroke="#63b8ff" points="153.2,-46.12 147.03,-54.72 157.22,-51.85 153.2,-46.12"/>
</a>
</g>
</g>
</g>
</svg>
