<?xml version="1.0" encoding="UTF-8" standalone="no"?>
<!DOCTYPE svg PUBLIC "-//W3C//DTD SVG 1.1//EN"
 "http://www.w3.org/Graphics/SVG/1.1/DTD/svg11.dtd">
<!-- Generated by graphviz version 14.0.2 (20251019.1705)
 -->
<!-- Title: light.cuh Pages: 1 -->
<svg width="234pt" height="196pt"
 viewBox="0.00 0.00 234.00 196.00" xmlns="http://www.w3.org/2000/svg" xmlns:xlink="http://www.w3.org/1999/xlink">
<g id="graph0" class="graph" transform="scale(1 1) rotate(0) translate(4 192)">
<title>light.cuh</title>
<!-- Node1 -->
<g id="Node000001" class="node">
<title>Node1</title>
<g id="a_Node000001"><a xlink:title="Light source types and data structure.">
<polygon fill="#999999" stroke="#666666" points="150.88,-188 98.12,-188 98.12,-168 150.88,-168 150.88,-188"/>
<text xml:space="preserve" text-anchor="middle" x="124.5" y="-174.5" font-family="Helvetica,sans-Serif" font-size="10.00">light.cuh</text>
</a>
</g>
</g>
<!-- Node2 -->
<g id="Node000002" class="node">
<title>Node2</title>
<g id="a_Node000002"><a xlink:href="vec3_8cuh.html" target="_top" xlink:title="Basic 3D vector type for points, directions, and colors.">
<polygon fill="white" stroke="#666666" points="96.25,-132 18.75,-132 18.75,-112 96.25,-112 96.25,-132"/>
<text xml:space="preserve" text-anchor="middle" x="57.5" y="-118.5" font-family="Helvetica,sans-Serif" font-size="10.00">core/vec3.cuh</text>
</a>
</g>
</g>
<!-- Node1&#45;&gt;Node2 -->
<g id="edge1_Node000001_Node000002" class="edge">
<title>Node1&#45;&gt;Node2</title>
<g id="a_edge1_Node000001_Node000002"><a xlink:title=" ">
<path fill="none" stroke="#63b8ff" d="M112.83,-167.59C103.22,-159.85 89.37,-148.69 77.93,-139.47"/>
<polygon fill="#63b8ff" stroke="#63b8ff" points="80.2,-136.8 70.22,-133.25 75.8,-142.25 80.2,-136.8"/>
</a>
</g>
</g>
<!-- Node4 -->
<g id="Node000004" class="node">
<title>Node4</title>
<g id="a_Node000004"><a xlink:href="macros_8cuh.html" target="_top" xlink:title="Project&#45;wide CUDA/host qualifiers and debug/guard macros.">
<polygon fill="white" stroke="#666666" points="149.88,-76 61.12,-76 61.12,-56 149.88,-56 149.88,-76"/>
<text xml:space="preserve" text-anchor="middle" x="105.5" y="-62.5" font-family="Helvetica,sans-Serif" font-size="10.00">core/macros.cuh</text>
</a>
</g>
</g>
<!-- Node1&#45;&gt;Node4 -->
<g id="edge7_Node000001_Node000004" class="edge">
<title>Node1&#45;&gt;Node4</title>
<g id="a_edge7_Node000001_Node000004"><a xlink:title=" ">
<path fill="none" stroke="#63b8ff" d="M122.88,-167.62C119.84,-150.01 113.2,-111.59 109.07,-87.65"/>
<polygon fill="#63b8ff" stroke="#63b8ff" points="112.52,-87.1 107.37,-77.85 105.63,-88.3 112.52,-87.1"/>
</a>
</g>
</g>
<!-- Node5 -->
<g id="Node000005" class="node">
<title>Node5</title>
<g id="a_Node000005"><a xlink:title=" ">
<polygon fill="#e0e0e0" stroke="#999999" points="225.88,-20 143.12,-20 143.12,0 225.88,0 225.88,-20"/>
<text xml:space="preserve" text-anchor="middle" x="184.5" y="-6.5" font-family="Helvetica,sans-Serif" font-size="10.00">cuda_runtime.h</text>
</a>
</g>
</g>
<!-- Node1&#45;&gt;Node5 -->
<g id="edge8_Node000001_Node000005" class="edge">
<title>Node1&#45;&gt;Node5</title>
<g id="a_edge8_Node000001_Node000005"><a xlink:title=" ">
<path fill="none" stroke="#63b8ff" d="M127.9,-167.6C137.39,-141.35 164.32,-66.84 177.31,-30.89"/>
<polygon fill="#63b8ff" stroke="#63b8ff" points="180.52,-32.32 180.62,-21.72 173.93,-29.94 180.52,-32.32"/>
</a>
</g>
</g>
<!-- Node3 -->
<g id="Node000003" class="node">
<title>Node3</title>
<g id="a_Node000003"><a xlink:title=" ">
<polygon fill="#e0e0e0" stroke="#999999" points="43,-76 0,-76 0,-56 43,-56 43,-76"/>
<text xml:space="preserve" text-anchor="middle" x="21.5" y="-62.5" font-family="Helvetica,sans-Serif" font-size="10.00">cmath</text>
</a>
</g>
</g>
<!-- Node2&#45;&gt;Node3 -->
<g id="edge2_Node000002_Node000003" class="edge">
<title>Node2&#45;&gt;Node3</title>
<g id="a_edge2_Node000002_Node000003"><a xlink:title=" ">
<path fill="none" stroke="#63b8ff" d="M51.23,-111.59C46.48,-104.47 39.8,-94.45 33.98,-85.72"/>
<polygon fill="#63b8ff" stroke="#63b8ff" points="37,-83.94 28.54,-77.56 31.17,-87.82 37,-83.94"/>
</a>
</g>
</g>
<!-- Node2&#45;&gt;Node4 -->
<g id="edge3_Node000002_Node000004" class="edge">
<title>Node2&#45;&gt;Node4</title>
<g id="a_edge3_Node000002_Node000004"><a xlink:title=" ">
<path fill="none" stroke="#63b8ff" d="M65.86,-111.59C72.4,-104.24 81.68,-93.8 89.62,-84.87"/>
<polygon fill="#63b8ff" stroke="#63b8ff" points="92.2,-87.23 96.23,-77.43 86.97,-82.58 92.2,-87.23"/>
</a>
</g>
</g>
<!-- Node4&#45;&gt;Node5 -->
<g id="edge4_Node000004_Node000005" class="edge">
<title>Node4&#45;&gt;Node5</title>
<g id="a_edge4_Node000004_Node000005"><a xlink:title=" ">
<path fill="none" stroke="#63b8ff" d="M119.26,-55.59C130.86,-47.67 147.7,-36.16 161.36,-26.82"/>
<polygon fill="#63b8ff" stroke="#63b8ff" points="163.1,-29.87 169.38,-21.33 159.15,-24.09 163.1,-29.87"/>
</a>
</g>
</g>
<!-- Node6 -->
<g id="Node000006" class="node">
<title>Node6</title>
<g id="a_Node000006"><a xlink:title=" ">
<polygon fill="#e0e0e0" stroke="#999999" points="62.62,-20 20.38,-20 20.38,0 62.62,0 62.62,-20"/>
<text xml:space="preserve" text-anchor="middle" x="41.5" y="-6.5" font-family="Helvetica,sans-Serif" font-size="10.00">cstdio</text>
</a>
</g>
</g>
<!-- Node4&#45;&gt;Node6 -->
<g id="edge5_Node000004_Node000006" class="edge">
<title>Node4&#45;&gt;Node6</title>
<g id="a_edge5_Node000004_Node000006"><a xlink:title=" ">
<path fill="none" stroke="#63b8ff" d="M94.35,-55.59C85.17,-47.85 71.95,-36.69 61.02,-27.47"/>
<polygon fill="#63b8ff" stroke="#63b8ff" points="63.58,-25.05 53.68,-21.27 59.06,-30.4 63.58,-25.05"/>
</a>
</g>
</g>
<!-- Node7 -->
<g id="Node000007" class="node">
<title>Node7</title>
<g id="a_Node000007"><a xlink:title=" ">
<polygon fill="#e0e0e0" stroke="#999999" points="124.75,-20 80.25,-20 80.25,0 124.75,0 124.75,-20"/>
<text xml:space="preserve" text-anchor="middle" x="102.5" y="-6.5" font-family="Helvetica,sans-Serif" font-size="10.00">cstdlib</text>
</a>
</g>
</g>
<!-- Node4&#45;&gt;Node7 -->
<g id="edge6_Node000004_Node000007" class="edge">
<title>Node4&#45;&gt;Node7</title>
<g id="a_edge6_Node000004_Node000007"><a xlink:title=" ">
<path fill="none" stroke="#63b8ff" d="M104.98,-55.59C104.61,-49.01 104.11,-39.96 103.65,-31.73"/>
<polygon fill="#63b8ff" stroke="#63b8ff" points="107.15,-31.6 103.1,-21.81 100.16,-31.99 107.15,-31.6"/>
</a>
</g>
</g>
</g>
</svg>
