<?xml version="1.0" encoding="UTF-8" standalone="no"?>
<!DOCTYPE svg PUBLIC "-//W3C//DTD SVG 1.1//EN"
 "http://www.w3.org/Graphics/SVG/1.1/DTD/svg11.dtd">
<!-- Generated by graphviz version 14.0.2 (20251019.1705)
 -->
<!-- Title: numerics.cuh Pages: 1 -->
<svg width="294pt" height="140pt"
 viewBox="0.00 0.00 294.00 140.00" xmlns="http://www.w3.org/2000/svg" xmlns:xlink="http://www.w3.org/1999/xlink">
<g id="graph0" class="graph" transform="scale(1 1) rotate(0) translate(4 136)">
<title>numerics.cuh</title>
<!-- Node1 -->
<g id="Node000001" class="node">
<title>Node1</title>
<g id="a_Node000001"><a xlink:title="Small numeric helpers and constants (angles, tolerances, clamps).">
<polygon fill="#999999" stroke="#666666" points="243.62,-132 169.12,-132 169.12,-112 243.62,-112 243.62,-132"/>
<text xml:space="preserve" text-anchor="middle" x="206.38" y="-118.5" font-family="Helvetica,sans-Serif" font-size="10.00">numerics.cuh</text>
</a>
</g>
</g>
<!-- Node2 -->
<g id="Node000002" class="node">
<title>Node2</title>
<g id="a_Node000002"><a xlink:href="macros_8cuh.html" target="_top" xlink:title="Project&#45;wide CUDA/host qualifiers and debug/guard macros.">
<polygon fill="white" stroke="#666666" points="166.75,-76 78,-76 78,-56 166.75,-56 166.75,-76"/>
<text xml:space="preserve" text-anchor="middle" x="122.38" y="-62.5" font-family="Helvetica,sans-Serif" font-size="10.00">core/macros.cuh</text>
</a>
</g>
</g>
<!-- Node1&#45;&gt;Node2 -->
<g id="edge1_Node000001_Node000002" class="edge">
<title>Node1&#45;&gt;Node2</title>
<g id="a_edge1_Node000001_Node000002"><a xlink:title=" ">
<path fill="none" stroke="#63b8ff" d="M191.74,-111.59C179.29,-103.59 161.16,-91.93 146.55,-82.54"/>
<polygon fill="#63b8ff" stroke="#63b8ff" points="148.7,-79.76 138.39,-77.3 144.91,-85.65 148.7,-79.76"/>
</a>
</g>
</g>
<!-- Node6 -->
<g id="Node000006" class="node">
<title>Node6</title>
<g id="a_Node000006"><a xlink:title=" ">
<polygon fill="#e0e0e0" stroke="#999999" points="227.88,-76 184.88,-76 184.88,-56 227.88,-56 227.88,-76"/>
<text xml:space="preserve" text-anchor="middle" x="206.38" y="-62.5" font-family="Helvetica,sans-Serif" font-size="10.00">cmath</text>
</a>
</g>
</g>
<!-- Node1&#45;&gt;Node6 -->
<g id="edge5_Node000001_Node000006" class="edge">
<title>Node1&#45;&gt;Node6</title>
<g id="a_edge5_Node000001_Node000006"><a xlink:title=" ">
<path fill="none" stroke="#63b8ff" d="M206.38,-111.59C206.38,-105.01 206.38,-95.96 206.38,-87.73"/>
<polygon fill="#63b8ff" stroke="#63b8ff" points="209.88,-87.81 206.38,-77.81 202.88,-87.81 209.88,-87.81"/>
</a>
</g>
</g>
<!-- Node7 -->
<g id="Node000007" class="node">
<title>Node7</title>
<g id="a_Node000007"><a xlink:title=" ">
<polygon fill="#e0e0e0" stroke="#999999" points="286.38,-76 246.38,-76 246.38,-56 286.38,-56 286.38,-76"/>
<text xml:space="preserve" text-anchor="middle" x="266.38" y="-62.5" font-family="Helvetica,sans-Serif" font-size="10.00">cfloat</text>
</a>
</g>
</g>
<!-- Node1&#45;&gt;Node7 -->
<g id="edge6_Node000001_Node000007" class="edge">
<title>Node1&#45;&gt;Node7</title>
<g id="a_edge6_Node000001_Node000007"><a xlink:title=" ">
<path fill="none" stroke="#63b8ff" d="M216.83,-111.59C225.34,-103.93 237.59,-92.91 247.77,-83.75"/>
<polygon fill="#63b8ff" stroke="#63b8ff" points="249.83,-86.6 254.92,-77.31 245.14,-81.4 249.83,-86.6"/>
</a>
</g>
</g>
<!-- Node3 -->
<g id="Node000003" class="node">
<title>Node3</title>
<g id="a_Node000003"><a xlink:title=" ">
<polygon fill="#e0e0e0" stroke="#999999" points="82.75,-20 0,-20 0,0 82.75,0 82.75,-20"/>
<text xml:space="preserve" text-anchor="middle" x="41.38" y="-6.5" font-family="Helvetica,sans-Serif" font-size="10.00">cuda_runtime.h</text>
</a>
</g>
</g>
<!-- Node2&#45;&gt;Node3 -->
<g id="edge2_Node000002_Node000003" class="edge">
<title>Node2&#45;&gt;Node3</title>
<g id="a_edge2_Node000002_Node000003"><a xlink:title=" ">
<path fill="none" stroke="#63b8ff" d="M108.27,-55.59C96.38,-47.67 79.11,-36.16 65.1,-26.82"/>
<polygon fill="#63b8ff" stroke="#63b8ff" points="67.12,-23.95 56.85,-21.32 63.23,-29.78 67.12,-23.95"/>
</a>
</g>
</g>
<!-- Node4 -->
<g id="Node000004" class="node">
<title>Node4</title>
<g id="a_Node000004"><a xlink:title=" ">
<polygon fill="#e0e0e0" stroke="#999999" points="143.5,-20 101.25,-20 101.25,0 143.5,0 143.5,-20"/>
<text xml:space="preserve" text-anchor="middle" x="122.38" y="-6.5" font-family="Helvetica,sans-Serif" font-size="10.00">cstdio</text>
</a>
</g>
</g>
<!-- Node2&#45;&gt;Node4 -->
<g id="edge3_Node000002_Node000004" class="edge">
<title>Node2&#45;&gt;Node4</title>
<g id="a_edge3_Node000002_Node000004"><a xlink:title=" ">
<path fill="none" stroke="#63b8ff" d="M122.38,-55.59C122.38,-49.01 122.38,-39.96 122.38,-31.73"/>
<polygon fill="#63b8ff" stroke="#63b8ff" points="125.88,-31.81 122.38,-21.81 118.88,-31.81 125.88,-31.81"/>
</a>
</g>
</g>
<!-- Node5 -->
<g id="Node000005" class="node">
<title>Node5</title>
<g id="a_Node000005"><a xlink:title=" ">
<polygon fill="#e0e0e0" stroke="#999999" points="205.62,-20 161.12,-20 161.12,0 205.62,0 205.62,-20"/>
<text xml:space="preserve" text-anchor="middle" x="183.38" y="-6.5" font-family="Helvetica,sans-Serif" font-size="10.00">cstdlib</text>
</a>
</g>
</g>
<!-- Node2&#45;&gt;Node5 -->
<g id="edge4_Node000002_Node000005" class="edge">
<title>Node2&#45;&gt;Node5</title>
<g id="a_edge4_Node000002_Node000005"><a xlink:title=" ">
<path fill="none" stroke="#63b8ff" d="M133,-55.59C141.66,-47.93 154.11,-36.91 164.46,-27.75"/>
<polygon fill="#63b8ff" stroke="#63b8ff" points="166.57,-30.55 171.74,-21.3 161.93,-25.31 166.57,-30.55"/>
</a>
</g>
</g>
</g>
</svg>
