<?xml version="1.0" encoding="UTF-8" standalone="no"?>
<!DOCTYPE svg PUBLIC "-//W3C//DTD SVG 1.1//EN"
 "http://www.w3.org/Graphics/SVG/1.1/DTD/svg11.dtd">
<!-- Generated by graphviz version 14.0.2 (20251019.1705)
 -->
<!-- Title: Sphere Pages: 1 -->
<svg width="118pt" height="102pt"
 viewBox="0.00 0.00 118.00 102.00" xmlns="http://www.w3.org/2000/svg" xmlns:xlink="http://www.w3.org/1999/xlink">
<g id="graph0" class="graph" transform="scale(1 1) rotate(0) translate(4 98)">
<title>Sphere</title>
<!-- Node1 -->
<g id="Node000001" class="node">
<title>Node1</title>
<g id="a_Node000001"><a xlink:title="Sphere primitive with material.">
<polygon fill="#999999" stroke="#666666" points="73.25,-20 26.5,-20 26.5,0 73.25,0 73.25,-20"/>
<text xml:space="preserve" text-anchor="middle" x="49.88" y="-6.5" font-family="Helvetica,sans-Serif" font-size="10.00">Sphere</text>
</a>
</g>
</g>
<!-- Node2 -->
<g id="Node000002" class="node">
<title>Node2</title>
<g id="a_Node000002"><a xlink:href="struct_vec3.html" target="_top" xlink:title="Basic 3D vector.">
<polygon fill="white" stroke="#666666" points="37.75,-94 0,-94 0,-74 37.75,-74 37.75,-94"/>
<text xml:space="preserve" text-anchor="middle" x="18.88" y="-80.5" font-family="Helvetica,sans-Serif" font-size="10.00">Vec3</text>
</a>
</g>
</g>
<!-- Node2&#45;&gt;Node1 -->
<g id="edge1_Node000001_Node000002" class="edge">
<title>Node2&#45;&gt;Node1</title>
<g id="a_edge1_Node000001_Node000002"><a xlink:title=" ">
<path fill="none" stroke="#9a32cd" stroke-dasharray="5,2" d="M19.61,-62.34C20.52,-54.43 22.34,-45.51 25.88,-38 28.98,-31.42 34.2,-25.26 38.98,-20.49"/>
<polygon fill="#9a32cd" stroke="#9a32cd" points="16.14,-61.86 18.92,-72.08 23.12,-62.35 16.14,-61.86"/>
</a>
</g>
<text xml:space="preserve" text-anchor="start" x="28.88" y="-43.5" font-family="Helvetica,sans-Serif" font-size="10.00" fill="grey">center</text>
</g>
<!-- Node3 -->
<g id="Node000003" class="node">
<title>Node3</title>
<g id="a_Node000003"><a xlink:href="struct_material.html" target="_top" xlink:title="Surface properties of a renderable object.">
<polygon fill="white" stroke="#666666" points="106.12,-94 55.62,-94 55.62,-74 106.12,-74 106.12,-94"/>
<text xml:space="preserve" text-anchor="middle" x="80.88" y="-80.5" font-family="Helvetica,sans-Serif" font-size="10.00">Material</text>
</a>
</g>
</g>
<!-- Node3&#45;&gt;Node1 -->
<g id="edge2_Node000001_Node000003" class="edge">
<title>Node3&#45;&gt;Node1</title>
<g id="a_edge2_Node000001_Node000003"><a xlink:title=" ">
<path fill="none" stroke="#9a32cd" stroke-dasharray="5,2" d="M72.27,-63.02C66.24,-49.01 58.45,-30.93 53.83,-20.19"/>
<polygon fill="#9a32cd" stroke="#9a32cd" points="69.05,-64.4 76.22,-72.2 75.48,-61.63 69.05,-64.4"/>
</a>
</g>
<text xml:space="preserve" text-anchor="start" x="72.06" y="-43.5" font-family="Helvetica,sans-Serif" font-size="10.00" fill="grey">material</text>
</g>
</g>
</svg>
