<?xml version="1.0" encoding="UTF-8" standalone="no"?>
<!DOCTYPE svg PUBLIC "-//W3C//DTD SVG 1.1//EN"
 "http://www.w3.org/Graphics/SVG/1.1/DTD/svg11.dtd">
<!-- Generated by graphviz version 14.0.2 (20251019.1705)
 -->
<!-- Title: colors.cuh Pages: 1 -->
<svg width="214pt" height="140pt"
 viewBox="0.00 0.00 214.00 140.00" xmlns="http://www.w3.org/2000/svg" xmlns:xlink="http://www.w3.org/1999/xlink">
<g id="graph0" class="graph" transform="scale(1 1) rotate(0) translate(4 136)">
<title>colors.cuh</title>
<!-- Node1 -->
<g id="Node000001" class="node">
<title>Node1</title>
<g id="a_Node000001"><a xlink:title="Centralized color helpers and presets for uchar3.">
<polygon fill="#999999" stroke="#666666" points="111.88,-132 50.88,-132 50.88,-112 111.88,-112 111.88,-132"/>
<text xml:space="preserve" text-anchor="middle" x="81.38" y="-118.5" font-family="Helvetica,sans-Serif" font-size="10.00">colors.cuh</text>
</a>
</g>
</g>
<!-- Node2 -->
<g id="Node000002" class="node">
<title>Node2</title>
<g id="a_Node000002"><a xlink:title=" ">
<polygon fill="#e0e0e0" stroke="#999999" points="82.75,-20 0,-20 0,0 82.75,0 82.75,-20"/>
<text xml:space="preserve" text-anchor="middle" x="41.38" y="-6.5" font-family="Helvetica,sans-Serif" font-size="10.00">cuda_runtime.h</text>
</a>
</g>
</g>
<!-- Node1&#45;&gt;Node2 -->
<g id="edge1_Node000001_Node000002" class="edge">
<title>Node1&#45;&gt;Node2</title>
<g id="a_edge1_Node000001_Node000002"><a xlink:title=" ">
<path fill="none" stroke="#63b8ff" d="M77.96,-111.62C71.5,-93.84 57.33,-54.88 48.65,-31"/>
<polygon fill="#63b8ff" stroke="#63b8ff" points="52,-29.98 45.29,-21.78 45.42,-32.37 52,-29.98"/>
</a>
</g>
</g>
<!-- Node3 -->
<g id="Node000003" class="node">
<title>Node3</title>
<g id="a_Node000003"><a xlink:href="macros_8cuh.html" target="_top" xlink:title="Project&#45;wide CUDA/host qualifiers and debug/guard macros.">
<polygon fill="white" stroke="#666666" points="163.75,-76 75,-76 75,-56 163.75,-56 163.75,-76"/>
<text xml:space="preserve" text-anchor="middle" x="119.38" y="-62.5" font-family="Helvetica,sans-Serif" font-size="10.00">core/macros.cuh</text>
</a>
</g>
</g>
<!-- Node1&#45;&gt;Node3 -->
<g id="edge2_Node000001_Node000003" class="edge">
<title>Node1&#45;&gt;Node3</title>
<g id="a_edge2_Node000001_Node000003"><a xlink:title=" ">
<path fill="none" stroke="#63b8ff" d="M87.99,-111.59C93.06,-104.39 100.21,-94.23 106.4,-85.43"/>
<polygon fill="#63b8ff" stroke="#63b8ff" points="109.07,-87.73 111.96,-77.54 103.34,-83.7 109.07,-87.73"/>
</a>
</g>
</g>
<!-- Node3&#45;&gt;Node2 -->
<g id="edge3_Node000003_Node000002" class="edge">
<title>Node3&#45;&gt;Node2</title>
<g id="a_edge3_Node000003_Node000002"><a xlink:title=" ">
<path fill="none" stroke="#63b8ff" d="M105.79,-55.59C94.34,-47.67 77.71,-36.16 64.22,-26.82"/>
<polygon fill="#63b8ff" stroke="#63b8ff" points="66.53,-24.16 56.31,-21.34 62.54,-29.91 66.53,-24.16"/>
</a>
</g>
</g>
<!-- Node4 -->
<g id="Node000004" class="node">
<title>Node4</title>
<g id="a_Node000004"><a xlink:title=" ">
<polygon fill="#e0e0e0" stroke="#999999" points="143.5,-20 101.25,-20 101.25,0 143.5,0 143.5,-20"/>
<text xml:space="preserve" text-anchor="middle" x="122.38" y="-6.5" font-family="Helvetica,sans-Serif" font-size="10.00">cstdio</text>
</a>
</g>
</g>
<!-- Node3&#45;&gt;Node4 -->
<g id="edge4_Node000003_Node000004" class="edge">
<title>Node3&#45;&gt;Node4</title>
<g id="a_edge4_Node000003_Node000004"><a xlink:title=" ">
<path fill="none" stroke="#63b8ff" d="M119.9,-55.59C120.26,-49.01 120.77,-39.96 121.22,-31.73"/>
<polygon fill="#63b8ff" stroke="#63b8ff" points="124.71,-31.99 121.77,-21.81 117.73,-31.6 124.71,-31.99"/>
</a>
</g>
</g>
<!-- Node5 -->
<g id="Node000005" class="node">
<title>Node5</title>
<g id="a_Node000005"><a xlink:title=" ">
<polygon fill="#e0e0e0" stroke="#999999" points="205.62,-20 161.12,-20 161.12,0 205.62,0 205.62,-20"/>
<text xml:space="preserve" text-anchor="middle" x="183.38" y="-6.5" font-family="Helvetica,sans-Serif" font-size="10.00">cstdlib</text>
</a>
</g>
</g>
<!-- Node3&#45;&gt;Node5 -->
<g id="edge5_Node000003_Node000005" class="edge">
<title>Node3&#45;&gt;Node5</title>
<g id="a_edge5_Node000003_Node000005"><a xlink:title=" ">
<path fill="none" stroke="#63b8ff" d="M130.52,-55.59C139.7,-47.85 152.93,-36.69 163.86,-27.47"/>
<polygon fill="#63b8ff" stroke="#63b8ff" points="165.81,-30.4 171.2,-21.27 161.3,-25.05 165.81,-30.4"/>
</a>
</g>
</g>
</g>
</svg>
