<?xml version="1.0" encoding="UTF-8" standalone="no"?>
<!DOCTYPE svg PUBLIC "-//W3C//DTD SVG 1.1//EN"
 "http://www.w3.org/Graphics/SVG/1.1/DTD/svg11.dtd">
<!-- Generated by graphviz version 14.0.2 (20251019.1705)
 -->
<!-- Title: colors.cuh Pages: 1 -->
<svg width="273pt" height="140pt"
 viewBox="0.00 0.00 273.00 140.00" xmlns="http://www.w3.org/2000/svg" xmlns:xlink="http://www.w3.org/1999/xlink">
<g id="graph0" class="graph" transform="scale(1 1) rotate(0) translate(4 136)">
<title>colors.cuh</title>
<!-- Node1 -->
<g id="Node000001" class="node">
<title>Node1</title>
<g id="a_Node000001"><a xlink:title="Centralized color helpers and presets for uchar3.">
<polygon fill="#999999" stroke="#666666" points="127.5,-132 66.5,-132 66.5,-112 127.5,-112 127.5,-132"/>
<text xml:space="preserve" text-anchor="middle" x="97" y="-118.5" font-family="Helvetica,sans-Serif" font-size="10.00">colors.cuh</text>
</a>
</g>
</g>
<!-- Node2 -->
<g id="Node000002" class="node">
<title>Node2</title>
<g id="a_Node000002"><a xlink:href="cpu__raytracer_8cuh.html" target="_top" xlink:title="CPU&#45;only ray tracing entry point (reference implementation).">
<polygon fill="white" stroke="#666666" points="94,-76 0,-76 0,-56 94,-56 94,-76"/>
<text xml:space="preserve" text-anchor="middle" x="47" y="-62.5" font-family="Helvetica,sans-Serif" font-size="10.00">cpu_raytracer.cuh</text>
</a>
</g>
</g>
<!-- Node1&#45;&gt;Node2 -->
<g id="edge1_Node000001_Node000002" class="edge">
<title>Node1&#45;&gt;Node2</title>
<g id="a_edge1_Node000001_Node000002"><a xlink:title=" ">
<path fill="none" stroke="#63b8ff" d="M80.6,-103.29C72.26,-94.28 62.46,-83.7 55.61,-76.3"/>
<polygon fill="#63b8ff" stroke="#63b8ff" points="77.9,-105.52 87.26,-110.48 83.04,-100.77 77.9,-105.52"/>
</a>
</g>
</g>
<!-- Node5 -->
<g id="Node000005" class="node">
<title>Node5</title>
<g id="a_Node000005"><a xlink:href="defaults_8cuh.html" target="_top" xlink:title="Default rendering settings shared by CPU and GPU paths.">
<polygon fill="white" stroke="#666666" points="181.62,-76 112.38,-76 112.38,-56 181.62,-56 181.62,-76"/>
<text xml:space="preserve" text-anchor="middle" x="147" y="-62.5" font-family="Helvetica,sans-Serif" font-size="10.00">defaults.cuh</text>
</a>
</g>
</g>
<!-- Node1&#45;&gt;Node5 -->
<g id="edge4_Node000001_Node000005" class="edge">
<title>Node1&#45;&gt;Node5</title>
<g id="a_edge4_Node000001_Node000005"><a xlink:title=" ">
<path fill="none" stroke="#63b8ff" d="M113.4,-103.29C121.74,-94.28 131.54,-83.7 138.39,-76.3"/>
<polygon fill="#63b8ff" stroke="#63b8ff" points="110.96,-100.77 106.74,-110.48 116.1,-105.52 110.96,-100.77"/>
</a>
</g>
</g>
<!-- Node3 -->
<g id="Node000003" class="node">
<title>Node3</title>
<g id="a_Node000003"><a xlink:href="cpu__raytracer_8cu.html" target="_top" xlink:title="CPU reference renderer: matches GPU scene/light/shader for visual parity.">
<polygon fill="white" stroke="#666666" points="179.38,-20 90.62,-20 90.62,0 179.38,0 179.38,-20"/>
<text xml:space="preserve" text-anchor="middle" x="135" y="-6.5" font-family="Helvetica,sans-Serif" font-size="10.00">cpu_raytracer.cu</text>
</a>
</g>
</g>
<!-- Node2&#45;&gt;Node3 -->
<g id="edge2_Node000002_Node000003" class="edge">
<title>Node2&#45;&gt;Node3</title>
<g id="a_edge2_Node000002_Node000003"><a xlink:title=" ">
<path fill="none" stroke="#63b8ff" d="M71.75,-49.81C87.1,-40.39 106.35,-28.58 119.55,-20.48"/>
<polygon fill="#63b8ff" stroke="#63b8ff" points="70.31,-46.59 63.62,-54.8 73.97,-52.56 70.31,-46.59"/>
</a>
</g>
</g>
<!-- Node4 -->
<g id="Node000004" class="node">
<title>Node4</title>
<g id="a_Node000004"><a xlink:href="main_8cu.html" target="_top" xlink:title="Entry point: runs GPU + CPU renderers, saves images, prints timing.">
<polygon fill="white" stroke="#666666" points="72.25,-20 21.75,-20 21.75,0 72.25,0 72.25,-20"/>
<text xml:space="preserve" text-anchor="middle" x="47" y="-6.5" font-family="Helvetica,sans-Serif" font-size="10.00">main.cu</text>
</a>
</g>
</g>
<!-- Node2&#45;&gt;Node4 -->
<g id="edge3_Node000002_Node000004" class="edge">
<title>Node2&#45;&gt;Node4</title>
<g id="a_edge3_Node000002_Node000004"><a xlink:title=" ">
<path fill="none" stroke="#63b8ff" d="M47,-44.13C47,-35.9 47,-26.85 47,-20.3"/>
<polygon fill="#63b8ff" stroke="#63b8ff" points="43.5,-44.08 47,-54.08 50.5,-44.08 43.5,-44.08"/>
</a>
</g>
</g>
<!-- Node5&#45;&gt;Node3 -->
<g id="edge5_Node000005_Node000003" class="edge">
<title>Node5&#45;&gt;Node3</title>
<g id="a_edge5_Node000005_Node000003"><a xlink:title=" ">
<path fill="none" stroke="#63b8ff" d="M142.43,-44.43C140.58,-36.11 138.54,-26.93 137.07,-20.3"/>
<polygon fill="#63b8ff" stroke="#63b8ff" points="139,-45.11 144.58,-54.12 145.83,-43.6 139,-45.11"/>
</a>
</g>
</g>
<!-- Node5&#45;&gt;Node4 -->
<g id="edge6_Node000005_Node000004" class="edge">
<title>Node5&#45;&gt;Node4</title>
<g id="a_edge6_Node000005_Node000004"><a xlink:title=" ">
<path fill="none" stroke="#63b8ff" d="M119.87,-50.35C102.26,-40.84 79.85,-28.74 64.55,-20.48"/>
<polygon fill="#63b8ff" stroke="#63b8ff" points="117.79,-53.2 128.25,-54.87 121.11,-47.04 117.79,-53.2"/>
</a>
</g>
</g>
<!-- Node6 -->
<g id="Node000006" class="node">
<title>Node6</title>
<g id="a_Node000006"><a xlink:href="raytracer_8cu.html" target="_top" xlink:title="GPU primary&#45;ray kernel: shade one pixel per thread and write RGB.">
<polygon fill="white" stroke="#666666" points="264.88,-20 197.12,-20 197.12,0 264.88,0 264.88,-20"/>
<text xml:space="preserve" text-anchor="middle" x="231" y="-6.5" font-family="Helvetica,sans-Serif" font-size="10.00">raytracer.cu</text>
</a>
</g>
</g>
<!-- Node5&#45;&gt;Node6 -->
<g id="edge7_Node000005_Node000006" class="edge">
<title>Node5&#45;&gt;Node6</title>
<g id="a_edge7_Node000005_Node000006"><a xlink:title=" ">
<path fill="none" stroke="#63b8ff" d="M171.05,-49.54C185.63,-40.17 203.77,-28.51 216.25,-20.48"/>
<polygon fill="#63b8ff" stroke="#63b8ff" points="169.42,-46.42 162.9,-54.78 173.21,-52.31 169.42,-46.42"/>
</a>
</g>
</g>
</g>
</svg>
