<?xml version="1.0" encoding="UTF-8" standalone="no"?>
<!DOCTYPE svg PUBLIC "-//W3C//DTD SVG 1.1//EN"
 "http://www.w3.org/Graphics/SVG/1.1/DTD/svg11.dtd">
<!-- Generated by graphviz version 14.0.2 (20251019.1705)
 -->
<!-- Title: device_scene.cuh Pages: 1 -->
<svg width="693pt" height="364pt"
 viewBox="0.00 0.00 693.00 364.00" xmlns="http://www.w3.org/2000/svg" xmlns:xlink="http://www.w3.org/1999/xlink">
<g id="graph0" class="graph" transform="scale(1 1) rotate(0) translate(4 360)">
<title>device_scene.cuh</title>
<!-- Node1 -->
<g id="Node000001" class="node">
<title>Node1</title>
<g id="a_Node000001"><a xlink:title="GPU scene buffers in constant memory + lightweight accessor.">
<polygon fill="#999999" stroke="#666666" points="435.38,-356 340.62,-356 340.62,-336 435.38,-336 435.38,-356"/>
<text xml:space="preserve" text-anchor="middle" x="388" y="-342.5" font-family="Helvetica,sans-Serif" font-size="10.00">device_scene.cuh</text>
</a>
</g>
</g>
<!-- Node2 -->
<g id="Node000002" class="node">
<title>Node2</title>
<g id="a_Node000002"><a xlink:title=" ">
<polygon fill="#e0e0e0" stroke="#999999" points="171.38,-20 88.62,-20 88.62,0 171.38,0 171.38,-20"/>
<text xml:space="preserve" text-anchor="middle" x="130" y="-6.5" font-family="Helvetica,sans-Serif" font-size="10.00">cuda_runtime.h</text>
</a>
</g>
</g>
<!-- Node1&#45;&gt;Node2 -->
<g id="edge1_Node000001_Node000002" class="edge">
<title>Node1&#45;&gt;Node2</title>
<g id="a_edge1_Node000001_Node000002"><a xlink:title=" ">
<path fill="none" stroke="#63b8ff" d="M340.42,-341.56C236.82,-332.77 0,-305.02 0,-235 0,-235 0,-235 0,-121 0,-72.49 53.4,-40.98 91.75,-24.6"/>
<polygon fill="#63b8ff" stroke="#63b8ff" points="92.77,-27.97 100.71,-20.95 90.13,-21.48 92.77,-27.97"/>
</a>
</g>
</g>
<!-- Node3 -->
<g id="Node000003" class="node">
<title>Node3</title>
<g id="a_Node000003"><a xlink:href="quad_8cuh.html" target="_top" xlink:title="Quad primitive for ray tracing.">
<polygon fill="white" stroke="#666666" points="362.62,-244 263.38,-244 263.38,-224 362.62,-224 362.62,-244"/>
<text xml:space="preserve" text-anchor="middle" x="313" y="-230.5" font-family="Helvetica,sans-Serif" font-size="10.00">geometry/quad.cuh</text>
</a>
</g>
</g>
<!-- Node1&#45;&gt;Node3 -->
<g id="edge2_Node000001_Node000003" class="edge">
<title>Node1&#45;&gt;Node3</title>
<g id="a_edge2_Node000001_Node000003"><a xlink:title=" ">
<path fill="none" stroke="#63b8ff" d="M381.61,-335.62C369.26,-317.52 341.95,-277.45 325.75,-253.7"/>
<polygon fill="#63b8ff" stroke="#63b8ff" points="328.76,-251.9 320.23,-245.61 322.97,-255.84 328.76,-251.9"/>
</a>
</g>
</g>
<!-- Node13 -->
<g id="Node000013" class="node">
<title>Node13</title>
<g id="a_Node000013"><a xlink:href="sphere_8cuh.html" target="_top" xlink:title="Sphere primitive and analytic ray–sphere intersection.">
<polygon fill="white" stroke="#666666" points="602.75,-188 495.25,-188 495.25,-168 602.75,-168 602.75,-188"/>
<text xml:space="preserve" text-anchor="middle" x="549" y="-174.5" font-family="Helvetica,sans-Serif" font-size="10.00">geometry/sphere.cuh</text>
</a>
</g>
</g>
<!-- Node1&#45;&gt;Node13 -->
<g id="edge21_Node000001_Node000013" class="edge">
<title>Node1&#45;&gt;Node13</title>
<g id="a_edge21_Node000001_Node000013"><a xlink:title=" ">
<path fill="none" stroke="#63b8ff" d="M435.45,-336.44C483.88,-324.84 556.3,-298.91 588,-244 597.54,-227.48 583.78,-208.84 570.04,-195.76"/>
<polygon fill="#63b8ff" stroke="#63b8ff" points="572.65,-193.4 562.84,-189.41 568.03,-198.65 572.65,-193.4"/>
</a>
</g>
</g>
<!-- Node14 -->
<g id="Node000014" class="node">
<title>Node14</title>
<g id="a_Node000014"><a xlink:href="shader_8cuh.html" target="_top" xlink:title="Compact shading utilities for CPU &amp; GPU.">
<polygon fill="white" stroke="#666666" points="482.38,-300 375.62,-300 375.62,-280 482.38,-280 482.38,-300"/>
<text xml:space="preserve" text-anchor="middle" x="429" y="-286.5" font-family="Helvetica,sans-Serif" font-size="10.00">rendering/shader.cuh</text>
</a>
</g>
</g>
<!-- Node1&#45;&gt;Node14 -->
<g id="edge27_Node000001_Node000014" class="edge">
<title>Node1&#45;&gt;Node14</title>
<g id="a_edge27_Node000001_Node000014"><a xlink:title=" ">
<path fill="none" stroke="#63b8ff" d="M395.14,-335.59C400.61,-328.39 408.32,-318.23 415.01,-309.43"/>
<polygon fill="#63b8ff" stroke="#63b8ff" points="417.77,-311.58 421.02,-301.5 412.19,-307.35 417.77,-311.58"/>
</a>
</g>
</g>
<!-- Node3&#45;&gt;Node2 -->
<g id="edge20_Node000003_Node000002" class="edge">
<title>Node3&#45;&gt;Node2</title>
<g id="a_edge20_Node000003_Node000002"><a xlink:title=" ">
<path fill="none" stroke="#63b8ff" d="M263.06,-225.64C232.69,-219.36 194.26,-208.02 165,-188 138.88,-170.13 131.35,-161.91 121,-132 109.28,-98.11 117.13,-55.78 123.7,-31.23"/>
<polygon fill="#63b8ff" stroke="#63b8ff" points="126.99,-32.47 126.4,-21.89 120.26,-30.52 126.99,-32.47"/>
</a>
</g>
</g>
<!-- Node4 -->
<g id="Node000004" class="node">
<title>Node4</title>
<g id="a_Node000004"><a xlink:href="macros_8cuh.html" target="_top" xlink:title="Project&#45;wide CUDA/host qualifiers and debug/guard macros.">
<polygon fill="white" stroke="#666666" points="389.38,-76 300.62,-76 300.62,-56 389.38,-56 389.38,-76"/>
<text xml:space="preserve" text-anchor="middle" x="345" y="-62.5" font-family="Helvetica,sans-Serif" font-size="10.00">core/macros.cuh</text>
</a>
</g>
</g>
<!-- Node3&#45;&gt;Node4 -->
<g id="edge3_Node000003_Node000004" class="edge">
<title>Node3&#45;&gt;Node4</title>
<g id="a_edge3_Node000003_Node000004"><a xlink:title=" ">
<path fill="none" stroke="#63b8ff" d="M267.23,-223.57C233.08,-214.06 194.6,-196.63 209,-168 230.23,-125.8 278.35,-96.79 311.27,-81.04"/>
<polygon fill="#63b8ff" stroke="#63b8ff" points="312.37,-84.38 319.99,-77.02 309.45,-78.03 312.37,-84.38"/>
</a>
</g>
</g>
<!-- Node7 -->
<g id="Node000007" class="node">
<title>Node7</title>
<g id="a_Node000007"><a xlink:href="numerics_8cuh.html" target="_top" xlink:title="Small numeric helpers and constants (angles, tolerances, clamps).">
<polygon fill="white" stroke="#666666" points="673.12,-132 576.88,-132 576.88,-112 673.12,-112 673.12,-132"/>
<text xml:space="preserve" text-anchor="middle" x="625" y="-118.5" font-family="Helvetica,sans-Serif" font-size="10.00">core/numerics.cuh</text>
</a>
</g>
</g>
<!-- Node3&#45;&gt;Node7 -->
<g id="edge7_Node000003_Node000007" class="edge">
<title>Node3&#45;&gt;Node7</title>
<g id="a_edge7_Node000003_Node000007"><a xlink:title=" ">
<path fill="none" stroke="#63b8ff" d="M362.97,-232.21C438.63,-229.94 577.14,-221.23 612,-188 623.86,-176.7 626.55,-157.88 626.6,-143.39"/>
<polygon fill="#63b8ff" stroke="#63b8ff" points="630.1,-143.42 626.19,-133.58 623.11,-143.71 630.1,-143.42"/>
</a>
</g>
</g>
<!-- Node10 -->
<g id="Node000010" class="node">
<title>Node10</title>
<g id="a_Node000010"><a xlink:href="vec3_8cuh.html" target="_top" xlink:title="Basic 3D vector type for points, directions, and colors.">
<polygon fill="white" stroke="#666666" points="469.75,-132 392.25,-132 392.25,-112 469.75,-112 469.75,-132"/>
<text xml:space="preserve" text-anchor="middle" x="431" y="-118.5" font-family="Helvetica,sans-Serif" font-size="10.00">core/vec3.cuh</text>
</a>
</g>
</g>
<!-- Node3&#45;&gt;Node10 -->
<g id="edge11_Node000003_Node000010" class="edge">
<title>Node3&#45;&gt;Node10</title>
<g id="a_edge11_Node000003_Node000010"><a xlink:title=" ">
<path fill="none" stroke="#63b8ff" d="M350.64,-223.52C370.76,-216.69 394.5,-205.52 410,-188 420.95,-175.63 426.2,-157.46 428.71,-143.48"/>
<polygon fill="#63b8ff" stroke="#63b8ff" points="432.18,-143.99 430.12,-133.6 425.25,-143.01 432.18,-143.99"/>
</a>
</g>
</g>
<!-- Node11 -->
<g id="Node000011" class="node">
<title>Node11</title>
<g id="a_Node000011"><a xlink:href="ray_8cuh.html" target="_top" xlink:title="Mathematical ray type for 3D space.">
<polygon fill="white" stroke="#666666" points="400.62,-188 331.38,-188 331.38,-168 400.62,-168 400.62,-188"/>
<text xml:space="preserve" text-anchor="middle" x="366" y="-174.5" font-family="Helvetica,sans-Serif" font-size="10.00">core/ray.cuh</text>
</a>
</g>
</g>
<!-- Node3&#45;&gt;Node11 -->
<g id="edge14_Node000003_Node000011" class="edge">
<title>Node3&#45;&gt;Node11</title>
<g id="a_edge14_Node000003_Node000011"><a xlink:title=" ">
<path fill="none" stroke="#63b8ff" d="M322.23,-223.59C329.6,-216.08 340.13,-205.35 349.02,-196.3"/>
<polygon fill="#63b8ff" stroke="#63b8ff" points="351.31,-198.97 355.81,-189.38 346.31,-194.06 351.31,-198.97"/>
</a>
</g>
</g>
<!-- Node12 -->
<g id="Node000012" class="node">
<title>Node12</title>
<g id="a_Node000012"><a xlink:href="material_8cuh.html" target="_top" xlink:title="Surface material definitions and presets.">
<polygon fill="white" stroke="#666666" points="221.5,-132 130.5,-132 130.5,-112 221.5,-112 221.5,-132"/>
<text xml:space="preserve" text-anchor="middle" x="176" y="-118.5" font-family="Helvetica,sans-Serif" font-size="10.00">core/material.cuh</text>
</a>
</g>
</g>
<!-- Node3&#45;&gt;Node12 -->
<g id="edge17_Node000003_Node000012" class="edge">
<title>Node3&#45;&gt;Node12</title>
<g id="a_edge17_Node000003_Node000012"><a xlink:title=" ">
<path fill="none" stroke="#63b8ff" d="M263.06,-230.64C232.56,-226.31 195.75,-215.27 176,-188 166.79,-175.28 167.59,-157.17 170.25,-143.29"/>
<polygon fill="#63b8ff" stroke="#63b8ff" points="173.57,-144.45 172.5,-133.91 166.76,-142.82 173.57,-144.45"/>
</a>
</g>
</g>
<!-- Node4&#45;&gt;Node2 -->
<g id="edge4_Node000004_Node000002" class="edge">
<title>Node4&#45;&gt;Node2</title>
<g id="a_edge4_Node000004_Node000002"><a xlink:title=" ">
<path fill="none" stroke="#63b8ff" d="M307.55,-55.59C271.85,-46.63 217.9,-33.08 178.84,-23.27"/>
<polygon fill="#63b8ff" stroke="#63b8ff" points="179.76,-19.89 169.21,-20.85 178.06,-26.68 179.76,-19.89"/>
</a>
</g>
</g>
<!-- Node5 -->
<g id="Node000005" class="node">
<title>Node5</title>
<g id="a_Node000005"><a xlink:title=" ">
<polygon fill="#e0e0e0" stroke="#999999" points="396.12,-20 353.88,-20 353.88,0 396.12,0 396.12,-20"/>
<text xml:space="preserve" text-anchor="middle" x="375" y="-6.5" font-family="Helvetica,sans-Serif" font-size="10.00">cstdio</text>
</a>
</g>
</g>
<!-- Node4&#45;&gt;Node5 -->
<g id="edge5_Node000004_Node000005" class="edge">
<title>Node4&#45;&gt;Node5</title>
<g id="a_edge5_Node000004_Node000005"><a xlink:title=" ">
<path fill="none" stroke="#63b8ff" d="M350.23,-55.59C354.1,-48.63 359.51,-38.89 364.28,-30.29"/>
<polygon fill="#63b8ff" stroke="#63b8ff" points="367.3,-32.06 369.1,-21.62 361.18,-28.66 367.3,-32.06"/>
</a>
</g>
</g>
<!-- Node6 -->
<g id="Node000006" class="node">
<title>Node6</title>
<g id="a_Node000006"><a xlink:title=" ">
<polygon fill="#e0e0e0" stroke="#999999" points="336.25,-20 291.75,-20 291.75,0 336.25,0 336.25,-20"/>
<text xml:space="preserve" text-anchor="middle" x="314" y="-6.5" font-family="Helvetica,sans-Serif" font-size="10.00">cstdlib</text>
</a>
</g>
</g>
<!-- Node4&#45;&gt;Node6 -->
<g id="edge6_Node000004_Node000006" class="edge">
<title>Node4&#45;&gt;Node6</title>
<g id="a_edge6_Node000004_Node000006"><a xlink:title=" ">
<path fill="none" stroke="#63b8ff" d="M339.6,-55.59C335.56,-48.55 329.88,-38.67 324.91,-30"/>
<polygon fill="#63b8ff" stroke="#63b8ff" points="328.11,-28.54 320.09,-21.61 322.03,-32.03 328.11,-28.54"/>
</a>
</g>
</g>
<!-- Node7&#45;&gt;Node4 -->
<g id="edge8_Node000007_Node000004" class="edge">
<title>Node7&#45;&gt;Node4</title>
<g id="a_edge8_Node000007_Node000004"><a xlink:title=" ">
<path fill="none" stroke="#63b8ff" d="M576.55,-111.66C527.65,-102.23 452.23,-87.68 400.85,-77.77"/>
<polygon fill="#63b8ff" stroke="#63b8ff" points="401.6,-74.35 391.11,-75.89 400.27,-81.22 401.6,-74.35"/>
</a>
</g>
</g>
<!-- Node8 -->
<g id="Node000008" class="node">
<title>Node8</title>
<g id="a_Node000008"><a xlink:title=" ">
<polygon fill="#e0e0e0" stroke="#999999" points="578.5,-76 535.5,-76 535.5,-56 578.5,-56 578.5,-76"/>
<text xml:space="preserve" text-anchor="middle" x="557" y="-62.5" font-family="Helvetica,sans-Serif" font-size="10.00">cmath</text>
</a>
</g>
</g>
<!-- Node7&#45;&gt;Node8 -->
<g id="edge9_Node000007_Node000008" class="edge">
<title>Node7&#45;&gt;Node8</title>
<g id="a_edge9_Node000007_Node000008"><a xlink:title=" ">
<path fill="none" stroke="#63b8ff" d="M613.16,-111.59C603.31,-103.77 589.07,-92.46 577.39,-83.19"/>
<polygon fill="#63b8ff" stroke="#63b8ff" points="579.9,-80.72 569.89,-77.24 575.55,-86.2 579.9,-80.72"/>
</a>
</g>
</g>
<!-- Node9 -->
<g id="Node000009" class="node">
<title>Node9</title>
<g id="a_Node000009"><a xlink:title=" ">
<polygon fill="#e0e0e0" stroke="#999999" points="645,-76 605,-76 605,-56 645,-56 645,-76"/>
<text xml:space="preserve" text-anchor="middle" x="625" y="-62.5" font-family="Helvetica,sans-Serif" font-size="10.00">cfloat</text>
</a>
</g>
</g>
<!-- Node7&#45;&gt;Node9 -->
<g id="edge10_Node000007_Node000009" class="edge">
<title>Node7&#45;&gt;Node9</title>
<g id="a_edge10_Node000007_Node000009"><a xlink:title=" ">
<path fill="none" stroke="#63b8ff" d="M625,-111.59C625,-105.01 625,-95.96 625,-87.73"/>
<polygon fill="#63b8ff" stroke="#63b8ff" points="628.5,-87.81 625,-77.81 621.5,-87.81 628.5,-87.81"/>
</a>
</g>
</g>
<!-- Node10&#45;&gt;Node4 -->
<g id="edge13_Node000010_Node000004" class="edge">
<title>Node10&#45;&gt;Node4</title>
<g id="a_edge13_Node000010_Node000004"><a xlink:title=" ">
<path fill="none" stroke="#63b8ff" d="M416.02,-111.59C403.27,-103.59 384.71,-91.93 369.76,-82.54"/>
<polygon fill="#63b8ff" stroke="#63b8ff" points="371.71,-79.64 361.38,-77.28 367.99,-85.57 371.71,-79.64"/>
</a>
</g>
</g>
<!-- Node10&#45;&gt;Node8 -->
<g id="edge12_Node000010_Node000008" class="edge">
<title>Node10&#45;&gt;Node8</title>
<g id="a_edge12_Node000010_Node000008"><a xlink:title=" ">
<path fill="none" stroke="#63b8ff" d="M452.95,-111.59C472.82,-103.08 502.35,-90.42 524.88,-80.77"/>
<polygon fill="#63b8ff" stroke="#63b8ff" points="526.1,-84.05 533.91,-76.89 523.34,-77.62 526.1,-84.05"/>
</a>
</g>
</g>
<!-- Node11&#45;&gt;Node4 -->
<g id="edge16_Node000011_Node000004" class="edge">
<title>Node11&#45;&gt;Node4</title>
<g id="a_edge16_Node000011_Node000004"><a xlink:title=" ">
<path fill="none" stroke="#63b8ff" d="M364.21,-167.62C360.85,-150.01 353.51,-111.59 348.94,-87.65"/>
<polygon fill="#63b8ff" stroke="#63b8ff" points="352.38,-87.01 347.07,-77.84 345.51,-88.32 352.38,-87.01"/>
</a>
</g>
</g>
<!-- Node11&#45;&gt;Node10 -->
<g id="edge15_Node000011_Node000010" class="edge">
<title>Node11&#45;&gt;Node10</title>
<g id="a_edge15_Node000011_Node000010"><a xlink:title=" ">
<path fill="none" stroke="#63b8ff" d="M377.32,-167.59C386.64,-159.85 400.08,-148.69 411.18,-139.47"/>
<polygon fill="#63b8ff" stroke="#63b8ff" points="413.19,-142.35 418.64,-133.27 408.71,-136.96 413.19,-142.35"/>
</a>
</g>
</g>
<!-- Node12&#45;&gt;Node2 -->
<g id="edge18_Node000012_Node000002" class="edge">
<title>Node12&#45;&gt;Node2</title>
<g id="a_edge18_Node000012_Node000002"><a xlink:title=" ">
<path fill="none" stroke="#63b8ff" d="M172.08,-111.62C164.61,-93.76 148.2,-54.53 138.23,-30.67"/>
<polygon fill="#63b8ff" stroke="#63b8ff" points="141.58,-29.63 134.5,-21.75 135.13,-32.33 141.58,-29.63"/>
</a>
</g>
</g>
<!-- Node12&#45;&gt;Node4 -->
<g id="edge19_Node000012_Node000004" class="edge">
<title>Node12&#45;&gt;Node4</title>
<g id="a_edge19_Node000012_Node000004"><a xlink:title=" ">
<path fill="none" stroke="#63b8ff" d="M205.44,-111.59C232.9,-102.82 274.09,-89.66 304.62,-79.9"/>
<polygon fill="#63b8ff" stroke="#63b8ff" points="305.43,-83.32 313.89,-76.94 303.3,-76.65 305.43,-83.32"/>
</a>
</g>
</g>
<!-- Node13&#45;&gt;Node4 -->
<g id="edge23_Node000013_Node000004" class="edge">
<title>Node13&#45;&gt;Node4</title>
<g id="a_edge23_Node000013_Node000004"><a xlink:title=" ">
<path fill="none" stroke="#63b8ff" d="M541.34,-167.71C529.38,-153.77 504.95,-127.42 479,-112 454.37,-97.37 424.35,-86.72 398.96,-79.47"/>
<polygon fill="#63b8ff" stroke="#63b8ff" points="400.06,-76.14 389.49,-76.87 398.21,-82.89 400.06,-76.14"/>
</a>
</g>
</g>
<!-- Node13&#45;&gt;Node7 -->
<g id="edge24_Node000013_Node000007" class="edge">
<title>Node13&#45;&gt;Node7</title>
<g id="a_edge24_Node000013_Node000007"><a xlink:title=" ">
<path fill="none" stroke="#63b8ff" d="M562.24,-167.59C573.29,-159.74 589.28,-148.38 602.36,-139.09"/>
<polygon fill="#63b8ff" stroke="#63b8ff" points="604.3,-142 610.42,-133.36 600.25,-136.3 604.3,-142"/>
</a>
</g>
</g>
<!-- Node13&#45;&gt;Node8 -->
<g id="edge22_Node000013_Node000008" class="edge">
<title>Node13&#45;&gt;Node8</title>
<g id="a_edge22_Node000013_Node000008"><a xlink:title=" ">
<path fill="none" stroke="#63b8ff" d="M549.68,-167.62C550.96,-150.01 553.76,-111.59 555.5,-87.65"/>
<polygon fill="#63b8ff" stroke="#63b8ff" points="558.98,-88.09 556.21,-77.86 551.99,-87.58 558.98,-88.09"/>
</a>
</g>
</g>
<!-- Node13&#45;&gt;Node10 -->
<g id="edge26_Node000013_Node000010" class="edge">
<title>Node13&#45;&gt;Node10</title>
<g id="a_edge26_Node000013_Node000010"><a xlink:title=" ">
<path fill="none" stroke="#63b8ff" d="M528.45,-167.59C510.12,-159.21 483.01,-146.8 462.04,-137.21"/>
<polygon fill="#63b8ff" stroke="#63b8ff" points="463.64,-134.09 453.09,-133.11 460.73,-140.45 463.64,-134.09"/>
</a>
</g>
</g>
<!-- Node13&#45;&gt;Node12 -->
<g id="edge25_Node000013_Node000012" class="edge">
<title>Node13&#45;&gt;Node12</title>
<g id="a_edge25_Node000013_Node000012"><a xlink:title=" ">
<path fill="none" stroke="#63b8ff" d="M494.76,-169.15C424.85,-159.03 303.86,-141.51 232.75,-131.22"/>
<polygon fill="#63b8ff" stroke="#63b8ff" points="233.68,-127.81 223.28,-129.85 232.68,-134.74 233.68,-127.81"/>
</a>
</g>
</g>
<!-- Node14&#45;&gt;Node2 -->
<g id="edge28_Node000014_Node000002" class="edge">
<title>Node14&#45;&gt;Node2</title>
<g id="a_edge28_Node000014_Node000002"><a xlink:title=" ">
<path fill="none" stroke="#63b8ff" d="M375.45,-285.16C268.37,-276.02 38,-248.28 38,-179 38,-179 38,-179 38,-121 38,-79.31 77.36,-45.1 104.59,-26.42"/>
<polygon fill="#63b8ff" stroke="#63b8ff" points="106.27,-29.5 112.71,-21.08 102.43,-23.65 106.27,-29.5"/>
</a>
</g>
</g>
<!-- Node14&#45;&gt;Node3 -->
<g id="edge35_Node000014_Node000003" class="edge">
<title>Node14&#45;&gt;Node3</title>
<g id="a_edge35_Node000014_Node000003"><a xlink:title=" ">
<path fill="none" stroke="#63b8ff" d="M408.79,-279.59C390.77,-271.21 364.13,-258.8 343.52,-249.21"/>
<polygon fill="#63b8ff" stroke="#63b8ff" points="345.28,-246.17 334.74,-245.12 342.32,-252.51 345.28,-246.17"/>
</a>
</g>
</g>
<!-- Node14&#45;&gt;Node7 -->
<g id="edge34_Node000014_Node000007" class="edge">
<title>Node14&#45;&gt;Node7</title>
<g id="a_edge34_Node000014_Node000007"><a xlink:title=" ">
<path fill="none" stroke="#63b8ff" d="M482.63,-282.39C515.25,-276.38 556.54,-265.08 588,-244 614.3,-226.38 621.65,-217.91 632,-188 637,-173.53 634.79,-156.26 631.58,-143.16"/>
<polygon fill="#63b8ff" stroke="#63b8ff" points="634.94,-142.2 628.81,-133.56 628.22,-144.14 634.94,-142.2"/>
</a>
</g>
</g>
<!-- Node14&#45;&gt;Node8 -->
<g id="edge30_Node000014_Node000008" class="edge">
<title>Node14&#45;&gt;Node8</title>
<g id="a_edge30_Node000014_Node000008"><a xlink:title=" ">
<path fill="none" stroke="#63b8ff" d="M482.61,-286.8C522.23,-282.76 575.73,-272.02 614,-244 660.99,-209.6 666.31,-188.08 682,-132 684.4,-123.44 687.11,-119.27 682,-112 676.45,-104.1 624.72,-87.29 589.57,-76.6"/>
<polygon fill="#63b8ff" stroke="#63b8ff" points="590.85,-73.34 580.27,-73.8 588.83,-80.04 590.85,-73.34"/>
</a>
</g>
</g>
<!-- Node14&#45;&gt;Node10 -->
<g id="edge31_Node000014_Node000010" class="edge">
<title>Node14&#45;&gt;Node10</title>
<g id="a_edge31_Node000014_Node000010"><a xlink:title=" ">
<path fill="none" stroke="#63b8ff" d="M429.11,-279.6C429.43,-253.46 430.32,-179.48 430.75,-143.36"/>
<polygon fill="#63b8ff" stroke="#63b8ff" points="434.25,-143.85 430.87,-133.81 427.25,-143.77 434.25,-143.85"/>
</a>
</g>
</g>
<!-- Node14&#45;&gt;Node11 -->
<g id="edge32_Node000014_Node000011" class="edge">
<title>Node14&#45;&gt;Node11</title>
<g id="a_edge32_Node000014_Node000011"><a xlink:title=" ">
<path fill="none" stroke="#63b8ff" d="M426.71,-279.71C423.24,-266.66 415.9,-242.43 405,-224 399.11,-214.04 390.92,-204.19 383.57,-196.26"/>
<polygon fill="#63b8ff" stroke="#63b8ff" points="386.3,-194.05 376.83,-189.3 381.27,-198.92 386.3,-194.05"/>
</a>
</g>
</g>
<!-- Node14&#45;&gt;Node12 -->
<g id="edge33_Node000014_Node000012" class="edge">
<title>Node14&#45;&gt;Node12</title>
<g id="a_edge33_Node000014_Node000012"><a xlink:title=" ">
<path fill="none" stroke="#63b8ff" d="M375.28,-287.36C310.65,-282.02 205.75,-261.78 165,-188 157.38,-174.21 161.14,-156.45 166.24,-142.98"/>
<polygon fill="#63b8ff" stroke="#63b8ff" points="169.43,-144.41 170.21,-133.85 163.01,-141.62 169.43,-144.41"/>
</a>
</g>
</g>
<!-- Node14&#45;&gt;Node13 -->
<g id="edge36_Node000014_Node000013" class="edge">
<title>Node14&#45;&gt;Node13</title>
<g id="a_edge36_Node000014_Node000013"><a xlink:title=" ">
<path fill="none" stroke="#63b8ff" d="M440.3,-279.5C450.93,-270.5 467.22,-256.53 481,-244 498.44,-228.13 517.84,-209.49 531.44,-196.25"/>
<polygon fill="#63b8ff" stroke="#63b8ff" points="533.67,-198.96 538.38,-189.47 528.78,-193.95 533.67,-198.96"/>
</a>
</g>
</g>
<!-- Node15 -->
<g id="Node000015" class="node">
<title>Node15</title>
<g id="a_Node000015"><a xlink:title=" ">
<polygon fill="#e0e0e0" stroke="#999999" points="578.62,-244 533.38,-244 533.38,-224 578.62,-224 578.62,-244"/>
<text xml:space="preserve" text-anchor="middle" x="556" y="-230.5" font-family="Helvetica,sans-Serif" font-size="10.00">cstdint</text>
</a>
</g>
</g>
<!-- Node14&#45;&gt;Node15 -->
<g id="edge29_Node000014_Node000015" class="edge">
<title>Node14&#45;&gt;Node15</title>
<g id="a_edge29_Node000014_Node000015"><a xlink:title=" ">
<path fill="none" stroke="#63b8ff" d="M451.12,-279.59C471.03,-271.13 500.55,-258.58 523.21,-248.94"/>
<polygon fill="#63b8ff" stroke="#63b8ff" points="524.48,-252.21 532.31,-245.07 521.74,-245.76 524.48,-252.21"/>
</a>
</g>
</g>
<!-- Node16 -->
<g id="Node000016" class="node">
<title>Node16</title>
<g id="a_Node000016"><a xlink:href="light_8cuh.html" target="_top" xlink:title="Light source types and data structure.">
<polygon fill="white" stroke="#666666" points="313.75,-188 218.25,-188 218.25,-168 313.75,-168 313.75,-188"/>
<text xml:space="preserve" text-anchor="middle" x="266" y="-174.5" font-family="Helvetica,sans-Serif" font-size="10.00">rendering/light.cuh</text>
</a>
</g>
</g>
<!-- Node14&#45;&gt;Node16 -->
<g id="edge37_Node000014_Node000016" class="edge">
<title>Node14&#45;&gt;Node16</title>
<g id="a_edge37_Node000014_Node000016"><a xlink:title=" ">
<path fill="none" stroke="#63b8ff" d="M423.01,-279.86C413.61,-266.11 394.13,-240.01 372,-224 353,-210.26 329.16,-199.66 308.91,-192.22"/>
<polygon fill="#63b8ff" stroke="#63b8ff" points="310.1,-188.92 299.5,-188.9 307.77,-195.53 310.1,-188.92"/>
</a>
</g>
</g>
<!-- Node16&#45;&gt;Node2 -->
<g id="edge40_Node000016_Node000002" class="edge">
<title>Node16&#45;&gt;Node2</title>
<g id="a_edge40_Node000016_Node000002"><a xlink:title=" ">
<path fill="none" stroke="#63b8ff" d="M261.85,-167.69C255.8,-154.62 243.77,-130.37 230,-112 205.64,-79.49 171.25,-47.02 149.81,-27.99"/>
<polygon fill="#63b8ff" stroke="#63b8ff" points="152.18,-25.42 142.36,-21.46 147.57,-30.68 152.18,-25.42"/>
</a>
</g>
</g>
<!-- Node16&#45;&gt;Node4 -->
<g id="edge39_Node000016_Node000004" class="edge">
<title>Node16&#45;&gt;Node4</title>
<g id="a_edge39_Node000016_Node000004"><a xlink:title=" ">
<path fill="none" stroke="#63b8ff" d="M273.98,-167.54C281.45,-158.57 292.81,-144.62 302,-132 313.06,-116.81 324.78,-98.97 333.18,-85.83"/>
<polygon fill="#63b8ff" stroke="#63b8ff" points="335.93,-88.04 338.32,-77.72 330.02,-84.29 335.93,-88.04"/>
</a>
</g>
</g>
<!-- Node16&#45;&gt;Node10 -->
<g id="edge38_Node000016_Node000010" class="edge">
<title>Node16&#45;&gt;Node10</title>
<g id="a_edge38_Node000016_Node000010"><a xlink:title=" ">
<path fill="none" stroke="#63b8ff" d="M294.74,-167.59C321.43,-158.86 361.42,-145.77 391.18,-136.03"/>
<polygon fill="#63b8ff" stroke="#63b8ff" points="392.18,-139.39 400.6,-132.95 390,-132.73 392.18,-139.39"/>
</a>
</g>
</g>
</g>
</svg>
