<?xml version="1.0" encoding="UTF-8" standalone="no"?>
<!DOCTYPE svg PUBLIC "-//W3C//DTD SVG 1.1//EN"
 "http://www.w3.org/Graphics/SVG/1.1/DTD/svg11.dtd">
<!-- Generated by graphviz version 14.0.2 (20251019.1705)
 -->
<!-- Title: device_scene.cu Pages: 1 -->
<svg width="1328pt" height="420pt"
 viewBox="0.00 0.00 1328.00 420.00" xmlns="http://www.w3.org/2000/svg" xmlns:xlink="http://www.w3.org/1999/xlink">
<g id="graph0" class="graph" transform="scale(1 1) rotate(0) translate(4 416)">
<title>device_scene.cu</title>
<!-- Node1 -->
<g id="Node000001" class="node">
<title>Node1</title>
<g id="a_Node000001"><a xlink:title="Upload scene buffers and debug flags to device constant memory.">
<polygon fill="#999999" stroke="#666666" points="1036.75,-412 947.25,-412 947.25,-392 1036.75,-392 1036.75,-412"/>
<text xml:space="preserve" text-anchor="middle" x="992" y="-398.5" font-family="Helvetica,sans-Serif" font-size="10.00">device_scene.cu</text>
</a>
</g>
</g>
<!-- Node2 -->
<g id="Node000002" class="node">
<title>Node2</title>
<g id="a_Node000002"><a xlink:title=" ">
<polygon fill="#e0e0e0" stroke="#999999" points="231.38,-20 148.62,-20 148.62,0 231.38,0 231.38,-20"/>
<text xml:space="preserve" text-anchor="middle" x="190" y="-6.5" font-family="Helvetica,sans-Serif" font-size="10.00">cuda_runtime.h</text>
</a>
</g>
</g>
<!-- Node1&#45;&gt;Node2 -->
<g id="edge1_Node000001_Node000002" class="edge">
<title>Node1&#45;&gt;Node2</title>
<g id="a_edge1_Node000001_Node000002"><a xlink:title=" ">
<path fill="none" stroke="#63b8ff" d="M946.8,-400.8C752.73,-399.37 0,-387.6 0,-291 0,-291 0,-291 0,-121 0,-57.35 80.85,-29.93 137.07,-18.56"/>
<polygon fill="#63b8ff" stroke="#63b8ff" points="137.64,-22.02 146.82,-16.72 136.34,-15.14 137.64,-22.02"/>
</a>
</g>
</g>
<!-- Node3 -->
<g id="Node000003" class="node">
<title>Node3</title>
<g id="a_Node000003"><a xlink:title=" ">
<polygon fill="#e0e0e0" stroke="#999999" points="1126.88,-300 1071.12,-300 1071.12,-280 1126.88,-280 1126.88,-300"/>
<text xml:space="preserve" text-anchor="middle" x="1099" y="-286.5" font-family="Helvetica,sans-Serif" font-size="10.00">algorithm</text>
</a>
</g>
</g>
<!-- Node1&#45;&gt;Node3 -->
<g id="edge2_Node000001_Node000003" class="edge">
<title>Node1&#45;&gt;Node3</title>
<g id="a_edge2_Node000001_Node000003"><a xlink:title=" ">
<path fill="none" stroke="#63b8ff" d="M983.35,-391.89C971.84,-378.64 954.34,-353.7 967,-336 972.65,-328.1 1023.04,-312.44 1059.89,-301.84"/>
<polygon fill="#63b8ff" stroke="#63b8ff" points="1060.71,-305.24 1069.37,-299.14 1058.8,-298.51 1060.71,-305.24"/>
</a>
</g>
</g>
<!-- Node4 -->
<g id="Node000004" class="node">
<title>Node4</title>
<g id="a_Node000004"><a xlink:title=" ">
<polygon fill="#e0e0e0" stroke="#999999" points="1320.38,-356 1261.62,-356 1261.62,-336 1320.38,-336 1320.38,-356"/>
<text xml:space="preserve" text-anchor="middle" x="1291" y="-342.5" font-family="Helvetica,sans-Serif" font-size="10.00">stdexcept</text>
</a>
</g>
</g>
<!-- Node1&#45;&gt;Node4 -->
<g id="edge3_Node000001_Node000004" class="edge">
<title>Node1&#45;&gt;Node4</title>
<g id="a_edge3_Node000001_Node000004"><a xlink:title=" ">
<path fill="none" stroke="#63b8ff" d="M1036.94,-393.55C1088.12,-384.97 1174.22,-370.2 1248,-356 1248.81,-355.84 1249.64,-355.68 1250.47,-355.52"/>
<polygon fill="#63b8ff" stroke="#63b8ff" points="1250.82,-359.02 1259.93,-353.62 1249.44,-352.16 1250.82,-359.02"/>
</a>
</g>
</g>
<!-- Node5 -->
<g id="Node000005" class="node">
<title>Node5</title>
<g id="a_Node000005"><a xlink:href="macros_8cuh.html" target="_top" xlink:title="Project&#45;wide CUDA/host qualifiers and debug/guard macros.">
<polygon fill="white" stroke="#666666" points="717.38,-76 628.62,-76 628.62,-56 717.38,-56 717.38,-76"/>
<text xml:space="preserve" text-anchor="middle" x="673" y="-62.5" font-family="Helvetica,sans-Serif" font-size="10.00">core/macros.cuh</text>
</a>
</g>
</g>
<!-- Node1&#45;&gt;Node5 -->
<g id="edge4_Node000001_Node000005" class="edge">
<title>Node1&#45;&gt;Node5</title>
<g id="a_edge4_Node000001_Node000005"><a xlink:title=" ">
<path fill="none" stroke="#63b8ff" d="M1037.2,-397.36C1094.68,-391.82 1189.54,-379.37 1215,-356 1237.17,-335.64 1234,-321.1 1234,-291 1234,-291 1234,-291 1234,-177 1234,-74.79 870.88,-65.84 728.92,-66.25"/>
<polygon fill="#63b8ff" stroke="#63b8ff" points="728.99,-62.75 719,-66.3 729.02,-69.75 728.99,-62.75"/>
</a>
</g>
</g>
<!-- Node8 -->
<g id="Node000008" class="node">
<title>Node8</title>
<g id="a_Node000008"><a xlink:href="config_8cuh.html" target="_top" xlink:title="Centralized runtime config (and legacy render switches).">
<polygon fill="white" stroke="#666666" points="1206.12,-356 1115.88,-356 1115.88,-336 1206.12,-336 1206.12,-356"/>
<text xml:space="preserve" text-anchor="middle" x="1161" y="-342.5" font-family="Helvetica,sans-Serif" font-size="10.00">config/config.cuh</text>
</a>
</g>
</g>
<!-- Node1&#45;&gt;Node8 -->
<g id="edge8_Node000001_Node000008" class="edge">
<title>Node1&#45;&gt;Node8</title>
<g id="a_edge8_Node000001_Node000008"><a xlink:title=" ">
<path fill="none" stroke="#63b8ff" d="M1021.44,-391.59C1048.9,-382.82 1090.09,-369.66 1120.62,-359.9"/>
<polygon fill="#63b8ff" stroke="#63b8ff" points="1121.43,-363.32 1129.89,-356.94 1119.3,-356.65 1121.43,-363.32"/>
</a>
</g>
</g>
<!-- Node10 -->
<g id="Node000010" class="node">
<title>Node10</title>
<g id="a_Node000010"><a xlink:href="debug__config_8cuh.html" target="_top" xlink:title="Centralized debug feature toggles (compile&#45;time + runtime).">
<polygon fill="white" stroke="#666666" points="1097.88,-356 976.12,-356 976.12,-336 1097.88,-336 1097.88,-356"/>
<text xml:space="preserve" text-anchor="middle" x="1037" y="-342.5" font-family="Helvetica,sans-Serif" font-size="10.00">debug/debug_config.cuh</text>
</a>
</g>
</g>
<!-- Node1&#45;&gt;Node10 -->
<g id="edge10_Node000001_Node000010" class="edge">
<title>Node1&#45;&gt;Node10</title>
<g id="a_edge10_Node000001_Node000010"><a xlink:title=" ">
<path fill="none" stroke="#63b8ff" d="M999.84,-391.59C1005.97,-384.24 1014.67,-373.8 1022.11,-364.87"/>
<polygon fill="#63b8ff" stroke="#63b8ff" points="1024.57,-367.38 1028.28,-357.46 1019.19,-362.9 1024.57,-367.38"/>
</a>
</g>
</g>
<!-- Node11 -->
<g id="Node000011" class="node">
<title>Node11</title>
<g id="a_Node000011"><a xlink:href="device__scene_8cuh.html" target="_top" xlink:title="GPU scene buffers in constant memory + lightweight accessor.">
<polygon fill="white" stroke="#666666" points="503.75,-356 366.25,-356 366.25,-336 503.75,-336 503.75,-356"/>
<text xml:space="preserve" text-anchor="middle" x="435" y="-342.5" font-family="Helvetica,sans-Serif" font-size="10.00">rendering/device_scene.cuh</text>
</a>
</g>
</g>
<!-- Node1&#45;&gt;Node11 -->
<g id="edge12_Node000001_Node000011" class="edge">
<title>Node1&#45;&gt;Node11</title>
<g id="a_edge12_Node000001_Node000011"><a xlink:title=" ">
<path fill="none" stroke="#63b8ff" d="M946.89,-396.63C852.68,-387.49 633.95,-366.29 515.19,-354.77"/>
<polygon fill="#63b8ff" stroke="#63b8ff" points="515.81,-351.32 505.52,-353.84 515.14,-358.29 515.81,-351.32"/>
</a>
</g>
</g>
<!-- Node22 -->
<g id="Node000022" class="node">
<title>Node22</title>
<g id="a_Node000022"><a xlink:href="world__build_8cuh.html" target="_top" xlink:title="Centralized scene assembly for CPU &amp; GPU renderers (host&#45;only).">
<polygon fill="white" stroke="#666666" points="920,-356 802,-356 802,-336 920,-336 920,-356"/>
<text xml:space="preserve" text-anchor="middle" x="861" y="-342.5" font-family="Helvetica,sans-Serif" font-size="10.00">scenes/world_build.cuh</text>
</a>
</g>
</g>
<!-- Node1&#45;&gt;Node22 -->
<g id="edge50_Node000001_Node000022" class="edge">
<title>Node1&#45;&gt;Node22</title>
<g id="a_edge50_Node000001_Node000022"><a xlink:title=" ">
<path fill="none" stroke="#63b8ff" d="M969.18,-391.59C948.55,-383.09 917.92,-370.46 894.51,-360.81"/>
<polygon fill="#63b8ff" stroke="#63b8ff" points="895.98,-357.63 885.4,-357.06 893.31,-364.1 895.98,-357.63"/>
</a>
</g>
</g>
<!-- Node5&#45;&gt;Node2 -->
<g id="edge5_Node000005_Node000002" class="edge">
<title>Node5&#45;&gt;Node2</title>
<g id="a_edge5_Node000005_Node000002"><a xlink:title=" ">
<path fill="none" stroke="#63b8ff" d="M628.14,-58.06C623.04,-57.33 617.91,-56.63 613,-56 480.17,-38.98 323.28,-23.49 243.06,-15.91"/>
<polygon fill="#63b8ff" stroke="#63b8ff" points="243.59,-12.44 233.3,-14.99 242.93,-19.41 243.59,-12.44"/>
</a>
</g>
</g>
<!-- Node6 -->
<g id="Node000006" class="node">
<title>Node6</title>
<g id="a_Node000006"><a xlink:title=" ">
<polygon fill="#e0e0e0" stroke="#999999" points="724.12,-20 681.88,-20 681.88,0 724.12,0 724.12,-20"/>
<text xml:space="preserve" text-anchor="middle" x="703" y="-6.5" font-family="Helvetica,sans-Serif" font-size="10.00">cstdio</text>
</a>
</g>
</g>
<!-- Node5&#45;&gt;Node6 -->
<g id="edge6_Node000005_Node000006" class="edge">
<title>Node5&#45;&gt;Node6</title>
<g id="a_edge6_Node000005_Node000006"><a xlink:title=" ">
<path fill="none" stroke="#63b8ff" d="M678.23,-55.59C682.1,-48.63 687.51,-38.89 692.28,-30.29"/>
<polygon fill="#63b8ff" stroke="#63b8ff" points="695.3,-32.06 697.1,-21.62 689.18,-28.66 695.3,-32.06"/>
</a>
</g>
</g>
<!-- Node7 -->
<g id="Node000007" class="node">
<title>Node7</title>
<g id="a_Node000007"><a xlink:title=" ">
<polygon fill="#e0e0e0" stroke="#999999" points="664.25,-20 619.75,-20 619.75,0 664.25,0 664.25,-20"/>
<text xml:space="preserve" text-anchor="middle" x="642" y="-6.5" font-family="Helvetica,sans-Serif" font-size="10.00">cstdlib</text>
</a>
</g>
</g>
<!-- Node5&#45;&gt;Node7 -->
<g id="edge7_Node000005_Node000007" class="edge">
<title>Node5&#45;&gt;Node7</title>
<g id="a_edge7_Node000005_Node000007"><a xlink:title=" ">
<path fill="none" stroke="#63b8ff" d="M667.6,-55.59C663.56,-48.55 657.88,-38.67 652.91,-30"/>
<polygon fill="#63b8ff" stroke="#63b8ff" points="656.11,-28.54 648.09,-21.61 650.03,-32.03 656.11,-28.54"/>
</a>
</g>
</g>
<!-- Node9 -->
<g id="Node000009" class="node">
<title>Node9</title>
<g id="a_Node000009"><a xlink:title=" ">
<polygon fill="#e0e0e0" stroke="#999999" points="1014.62,-244 969.38,-244 969.38,-224 1014.62,-224 1014.62,-244"/>
<text xml:space="preserve" text-anchor="middle" x="992" y="-230.5" font-family="Helvetica,sans-Serif" font-size="10.00">cstdint</text>
</a>
</g>
</g>
<!-- Node8&#45;&gt;Node9 -->
<g id="edge9_Node000008_Node000009" class="edge">
<title>Node8&#45;&gt;Node9</title>
<g id="a_edge9_Node000008_Node000009"><a xlink:title=" ">
<path fill="none" stroke="#63b8ff" d="M1162.59,-335.76C1164.43,-321.89 1165.63,-295.63 1152,-280 1120.6,-243.99 1062.88,-235.74 1026.03,-234.4"/>
<polygon fill="#63b8ff" stroke="#63b8ff" points="1026.44,-230.91 1016.37,-234.21 1026.3,-237.9 1026.44,-230.91"/>
</a>
</g>
</g>
<!-- Node10&#45;&gt;Node9 -->
<g id="edge11_Node000010_Node000009" class="edge">
<title>Node10&#45;&gt;Node9</title>
<g id="a_edge11_Node000010_Node000009"><a xlink:title=" ">
<path fill="none" stroke="#63b8ff" d="M1076.88,-335.52C1112.21,-325.15 1155.43,-306.42 1136,-280 1110.95,-245.93 1060.22,-236.93 1026.16,-234.94"/>
<polygon fill="#63b8ff" stroke="#63b8ff" points="1026.52,-231.45 1016.39,-234.55 1026.25,-238.44 1026.52,-231.45"/>
</a>
</g>
</g>
<!-- Node11&#45;&gt;Node2 -->
<g id="edge13_Node000011_Node000002" class="edge">
<title>Node11&#45;&gt;Node2</title>
<g id="a_edge13_Node000011_Node000002"><a xlink:title=" ">
<path fill="none" stroke="#63b8ff" d="M365.85,-340.07C252.1,-330.04 38,-302.23 38,-235 38,-235 38,-235 38,-121 38,-69.05 96.99,-39.14 141.48,-23.96"/>
<polygon fill="#63b8ff" stroke="#63b8ff" points="142.55,-27.29 150.99,-20.89 140.4,-20.63 142.55,-27.29"/>
</a>
</g>
</g>
<!-- Node12 -->
<g id="Node000012" class="node">
<title>Node12</title>
<g id="a_Node000012"><a xlink:href="quad_8cuh.html" target="_top" xlink:title="Quad primitive for ray tracing.">
<polygon fill="white" stroke="#666666" points="720.62,-244 621.38,-244 621.38,-224 720.62,-224 720.62,-244"/>
<text xml:space="preserve" text-anchor="middle" x="671" y="-230.5" font-family="Helvetica,sans-Serif" font-size="10.00">geometry/quad.cuh</text>
</a>
</g>
</g>
<!-- Node11&#45;&gt;Node12 -->
<g id="edge14_Node000011_Node000012" class="edge">
<title>Node11&#45;&gt;Node12</title>
<g id="a_edge14_Node000011_Node000012"><a xlink:title=" ">
<path fill="none" stroke="#63b8ff" d="M446.32,-335.62C463.47,-321.8 497.5,-295.88 530,-280 558.61,-266.02 592.56,-255.03 619.98,-247.41"/>
<polygon fill="#63b8ff" stroke="#63b8ff" points="620.71,-250.84 629.45,-244.85 618.88,-244.08 620.71,-250.84"/>
</a>
</g>
</g>
<!-- Node19 -->
<g id="Node000019" class="node">
<title>Node19</title>
<g id="a_Node000019"><a xlink:href="sphere_8cuh.html" target="_top" xlink:title="Sphere primitive and analytic ray–sphere intersection.">
<polygon fill="white" stroke="#666666" points="488.75,-244 381.25,-244 381.25,-224 488.75,-224 488.75,-244"/>
<text xml:space="preserve" text-anchor="middle" x="435" y="-230.5" font-family="Helvetica,sans-Serif" font-size="10.00">geometry/sphere.cuh</text>
</a>
</g>
</g>
<!-- Node11&#45;&gt;Node19 -->
<g id="edge30_Node000011_Node000019" class="edge">
<title>Node11&#45;&gt;Node19</title>
<g id="a_edge30_Node000011_Node000019"><a xlink:title=" ">
<path fill="none" stroke="#63b8ff" d="M435,-335.62C435,-318.01 435,-279.59 435,-255.65"/>
<polygon fill="#63b8ff" stroke="#63b8ff" points="438.5,-255.87 435,-245.87 431.5,-255.87 438.5,-255.87"/>
</a>
</g>
</g>
<!-- Node20 -->
<g id="Node000020" class="node">
<title>Node20</title>
<g id="a_Node000020"><a xlink:href="shader_8cuh.html" target="_top" xlink:title="Compact shading utilities for CPU &amp; GPU.">
<polygon fill="white" stroke="#666666" points="407.38,-300 300.62,-300 300.62,-280 407.38,-280 407.38,-300"/>
<text xml:space="preserve" text-anchor="middle" x="354" y="-286.5" font-family="Helvetica,sans-Serif" font-size="10.00">rendering/shader.cuh</text>
</a>
</g>
</g>
<!-- Node11&#45;&gt;Node20 -->
<g id="edge36_Node000011_Node000020" class="edge">
<title>Node11&#45;&gt;Node20</title>
<g id="a_edge36_Node000011_Node000020"><a xlink:title=" ">
<path fill="none" stroke="#63b8ff" d="M420.89,-335.59C409,-327.67 391.73,-316.16 377.72,-306.82"/>
<polygon fill="#63b8ff" stroke="#63b8ff" points="379.74,-303.95 369.48,-301.32 375.86,-309.78 379.74,-303.95"/>
</a>
</g>
</g>
<!-- Node12&#45;&gt;Node2 -->
<g id="edge29_Node000012_Node000002" class="edge">
<title>Node12&#45;&gt;Node2</title>
<g id="a_edge29_Node000012_Node000002"><a xlink:title=" ">
<path fill="none" stroke="#63b8ff" d="M685.41,-223.55C702.82,-210.92 728.24,-187.83 715,-168 661.64,-88.1 365.66,-36.55 243.13,-18.35"/>
<polygon fill="#63b8ff" stroke="#63b8ff" points="243.73,-14.9 233.33,-16.91 242.71,-21.82 243.73,-14.9"/>
</a>
</g>
</g>
<!-- Node12&#45;&gt;Node5 -->
<g id="edge15_Node000012_Node000005" class="edge">
<title>Node12&#45;&gt;Node5</title>
<g id="a_edge15_Node000012_Node000005"><a xlink:title=" ">
<path fill="none" stroke="#63b8ff" d="M701.71,-223.55C718.58,-216.62 738.06,-205.32 748,-188 769.98,-149.7 724.75,-105.92 695.42,-82.97"/>
<polygon fill="#63b8ff" stroke="#63b8ff" points="697.85,-80.43 687.76,-77.19 693.64,-86.01 697.85,-80.43"/>
</a>
</g>
</g>
<!-- Node13 -->
<g id="Node000013" class="node">
<title>Node13</title>
<g id="a_Node000013"><a xlink:href="numerics_8cuh.html" target="_top" xlink:title="Small numeric helpers and constants (angles, tolerances, clamps).">
<polygon fill="white" stroke="#666666" points="390.12,-188 293.88,-188 293.88,-168 390.12,-168 390.12,-188"/>
<text xml:space="preserve" text-anchor="middle" x="342" y="-174.5" font-family="Helvetica,sans-Serif" font-size="10.00">core/numerics.cuh</text>
</a>
</g>
</g>
<!-- Node12&#45;&gt;Node13 -->
<g id="edge16_Node000012_Node000013" class="edge">
<title>Node12&#45;&gt;Node13</title>
<g id="a_edge16_Node000012_Node000013"><a xlink:title=" ">
<path fill="none" stroke="#63b8ff" d="M621.03,-224.8C562.23,-215.15 464.65,-199.13 401.86,-188.83"/>
<polygon fill="#63b8ff" stroke="#63b8ff" points="402.49,-185.38 392.05,-187.22 401.35,-192.29 402.49,-185.38"/>
</a>
</g>
</g>
<!-- Node16 -->
<g id="Node000016" class="node">
<title>Node16</title>
<g id="a_Node000016"><a xlink:href="vec3_8cuh.html" target="_top" xlink:title="Basic 3D vector type for points, directions, and colors.">
<polygon fill="white" stroke="#666666" points="570.75,-132 493.25,-132 493.25,-112 570.75,-112 570.75,-132"/>
<text xml:space="preserve" text-anchor="middle" x="532" y="-118.5" font-family="Helvetica,sans-Serif" font-size="10.00">core/vec3.cuh</text>
</a>
</g>
</g>
<!-- Node12&#45;&gt;Node16 -->
<g id="edge20_Node000012_Node000016" class="edge">
<title>Node12&#45;&gt;Node16</title>
<g id="a_edge20_Node000012_Node000016"><a xlink:title=" ">
<path fill="none" stroke="#63b8ff" d="M659.15,-223.62C635.45,-204.87 581.98,-162.55 552.49,-139.21"/>
<polygon fill="#63b8ff" stroke="#63b8ff" points="555.02,-136.76 545.01,-133.29 550.68,-142.24 555.02,-136.76"/>
</a>
</g>
</g>
<!-- Node17 -->
<g id="Node000017" class="node">
<title>Node17</title>
<g id="a_Node000017"><a xlink:href="ray_8cuh.html" target="_top" xlink:title="Mathematical ray type for 3D space.">
<polygon fill="white" stroke="#666666" points="705.62,-188 636.38,-188 636.38,-168 705.62,-168 705.62,-188"/>
<text xml:space="preserve" text-anchor="middle" x="671" y="-174.5" font-family="Helvetica,sans-Serif" font-size="10.00">core/ray.cuh</text>
</a>
</g>
</g>
<!-- Node12&#45;&gt;Node17 -->
<g id="edge23_Node000012_Node000017" class="edge">
<title>Node12&#45;&gt;Node17</title>
<g id="a_edge23_Node000012_Node000017"><a xlink:title=" ">
<path fill="none" stroke="#63b8ff" d="M671,-223.59C671,-217.01 671,-207.96 671,-199.73"/>
<polygon fill="#63b8ff" stroke="#63b8ff" points="674.5,-199.81 671,-189.81 667.5,-199.81 674.5,-199.81"/>
</a>
</g>
</g>
<!-- Node18 -->
<g id="Node000018" class="node">
<title>Node18</title>
<g id="a_Node000018"><a xlink:href="material_8cuh.html" target="_top" xlink:title="Surface material definitions and presets.">
<polygon fill="white" stroke="#666666" points="891.5,-188 800.5,-188 800.5,-168 891.5,-168 891.5,-188"/>
<text xml:space="preserve" text-anchor="middle" x="846" y="-174.5" font-family="Helvetica,sans-Serif" font-size="10.00">core/material.cuh</text>
</a>
</g>
</g>
<!-- Node12&#45;&gt;Node18 -->
<g id="edge26_Node000012_Node000018" class="edge">
<title>Node12&#45;&gt;Node18</title>
<g id="a_edge26_Node000012_Node000018"><a xlink:title=" ">
<path fill="none" stroke="#63b8ff" d="M701.48,-223.59C730.04,-214.78 772.95,-201.54 804.6,-191.78"/>
<polygon fill="#63b8ff" stroke="#63b8ff" points="805.31,-195.22 813.83,-188.93 803.25,-188.53 805.31,-195.22"/>
</a>
</g>
</g>
<!-- Node13&#45;&gt;Node5 -->
<g id="edge17_Node000013_Node000005" class="edge">
<title>Node13&#45;&gt;Node5</title>
<g id="a_edge17_Node000013_Node000005"><a xlink:title=" ">
<path fill="none" stroke="#63b8ff" d="M359.47,-167.64C385.83,-153.85 437.6,-127.97 484,-112 527.98,-96.86 579.41,-84.98 617.51,-77.23"/>
<polygon fill="#63b8ff" stroke="#63b8ff" points="617.78,-80.75 626.9,-75.36 616.41,-73.88 617.78,-80.75"/>
</a>
</g>
</g>
<!-- Node14 -->
<g id="Node000014" class="node">
<title>Node14</title>
<g id="a_Node000014"><a xlink:title=" ">
<polygon fill="#e0e0e0" stroke="#999999" points="339.5,-76 296.5,-76 296.5,-56 339.5,-56 339.5,-76"/>
<text xml:space="preserve" text-anchor="middle" x="318" y="-62.5" font-family="Helvetica,sans-Serif" font-size="10.00">cmath</text>
</a>
</g>
</g>
<!-- Node13&#45;&gt;Node14 -->
<g id="edge18_Node000013_Node000014" class="edge">
<title>Node13&#45;&gt;Node14</title>
<g id="a_edge18_Node000013_Node000014"><a xlink:title=" ">
<path fill="none" stroke="#63b8ff" d="M339.95,-167.62C336.09,-149.92 327.65,-111.24 322.43,-87.32"/>
<polygon fill="#63b8ff" stroke="#63b8ff" points="325.91,-86.86 320.36,-77.83 319.08,-88.35 325.91,-86.86"/>
</a>
</g>
</g>
<!-- Node15 -->
<g id="Node000015" class="node">
<title>Node15</title>
<g id="a_Node000015"><a xlink:title=" ">
<polygon fill="#e0e0e0" stroke="#999999" points="386,-132 346,-132 346,-112 386,-112 386,-132"/>
<text xml:space="preserve" text-anchor="middle" x="366" y="-118.5" font-family="Helvetica,sans-Serif" font-size="10.00">cfloat</text>
</a>
</g>
</g>
<!-- Node13&#45;&gt;Node15 -->
<g id="edge19_Node000013_Node000015" class="edge">
<title>Node13&#45;&gt;Node15</title>
<g id="a_edge19_Node000013_Node000015"><a xlink:title=" ">
<path fill="none" stroke="#63b8ff" d="M346.18,-167.59C349.24,-160.7 353.51,-151.1 357.3,-142.57"/>
<polygon fill="#63b8ff" stroke="#63b8ff" points="360.39,-144.24 361.25,-133.68 353.99,-141.4 360.39,-144.24"/>
</a>
</g>
</g>
<!-- Node16&#45;&gt;Node5 -->
<g id="edge22_Node000016_Node000005" class="edge">
<title>Node16&#45;&gt;Node5</title>
<g id="a_edge22_Node000016_Node000005"><a xlink:title=" ">
<path fill="none" stroke="#63b8ff" d="M556.56,-111.59C578.97,-103.01 612.34,-90.23 637.62,-80.55"/>
<polygon fill="#63b8ff" stroke="#63b8ff" points="638.75,-83.87 646.83,-77.02 636.24,-77.33 638.75,-83.87"/>
</a>
</g>
</g>
<!-- Node16&#45;&gt;Node14 -->
<g id="edge21_Node000016_Node000014" class="edge">
<title>Node16&#45;&gt;Node14</title>
<g id="a_edge21_Node000016_Node000014"><a xlink:title=" ">
<path fill="none" stroke="#63b8ff" d="M494.72,-111.59C453.96,-101.31 389.29,-84.99 350.51,-75.2"/>
<polygon fill="#63b8ff" stroke="#63b8ff" points="351.85,-71.93 341.3,-72.88 350.14,-78.72 351.85,-71.93"/>
</a>
</g>
</g>
<!-- Node17&#45;&gt;Node5 -->
<g id="edge25_Node000017_Node000005" class="edge">
<title>Node17&#45;&gt;Node5</title>
<g id="a_edge25_Node000017_Node000005"><a xlink:title=" ">
<path fill="none" stroke="#63b8ff" d="M671.17,-167.62C671.49,-150.01 672.19,-111.59 672.62,-87.65"/>
<polygon fill="#63b8ff" stroke="#63b8ff" points="676.12,-87.93 672.8,-77.87 669.12,-87.8 676.12,-87.93"/>
</a>
</g>
</g>
<!-- Node17&#45;&gt;Node16 -->
<g id="edge24_Node000017_Node000016" class="edge">
<title>Node17&#45;&gt;Node16</title>
<g id="a_edge24_Node000017_Node000016"><a xlink:title=" ">
<path fill="none" stroke="#63b8ff" d="M646.79,-167.59C624.7,-159.01 591.8,-146.23 566.88,-136.55"/>
<polygon fill="#63b8ff" stroke="#63b8ff" points="568.4,-133.39 557.81,-133.03 565.87,-139.91 568.4,-133.39"/>
</a>
</g>
</g>
<!-- Node18&#45;&gt;Node2 -->
<g id="edge27_Node000018_Node000002" class="edge">
<title>Node18&#45;&gt;Node2</title>
<g id="a_edge27_Node000018_Node000002"><a xlink:title=" ">
<path fill="none" stroke="#63b8ff" d="M842.7,-167.72C837.55,-154.24 826.57,-129.02 811,-112 780.46,-78.63 768.75,-70.79 726,-56 637.8,-25.48 360.56,-15.19 243.26,-12.14"/>
<polygon fill="#63b8ff" stroke="#63b8ff" points="243.35,-8.64 233.26,-11.89 243.17,-15.64 243.35,-8.64"/>
</a>
</g>
</g>
<!-- Node18&#45;&gt;Node5 -->
<g id="edge28_Node000018_Node000005" class="edge">
<title>Node18&#45;&gt;Node5</title>
<g id="a_edge28_Node000018_Node000005"><a xlink:title=" ">
<path fill="none" stroke="#63b8ff" d="M839.63,-167.81C829.64,-154.01 809.03,-127.83 786,-112 765.62,-97.99 740.25,-87.39 718.71,-80"/>
<polygon fill="#63b8ff" stroke="#63b8ff" points="719.87,-76.7 709.28,-76.9 717.69,-83.35 719.87,-76.7"/>
</a>
</g>
</g>
<!-- Node19&#45;&gt;Node5 -->
<g id="edge32_Node000019_Node000005" class="edge">
<title>Node19&#45;&gt;Node5</title>
<g id="a_edge32_Node000019_Node000005"><a xlink:title=" ">
<path fill="none" stroke="#63b8ff" d="M448.6,-223.54C474.28,-205.67 531.69,-165.71 580,-132 603.96,-115.28 631.38,-96.11 650.21,-82.95"/>
<polygon fill="#63b8ff" stroke="#63b8ff" points="652.02,-85.95 658.21,-77.35 648.01,-80.21 652.02,-85.95"/>
</a>
</g>
</g>
<!-- Node19&#45;&gt;Node13 -->
<g id="edge33_Node000019_Node000013" class="edge">
<title>Node19&#45;&gt;Node13</title>
<g id="a_edge33_Node000019_Node000013"><a xlink:title=" ">
<path fill="none" stroke="#63b8ff" d="M418.8,-223.59C404.75,-215.44 384.17,-203.48 367.84,-194"/>
<polygon fill="#63b8ff" stroke="#63b8ff" points="370.04,-191.23 359.63,-189.24 366.53,-197.29 370.04,-191.23"/>
</a>
</g>
</g>
<!-- Node19&#45;&gt;Node14 -->
<g id="edge31_Node000019_Node000014" class="edge">
<title>Node19&#45;&gt;Node14</title>
<g id="a_edge31_Node000019_Node000014"><a xlink:title=" ">
<path fill="none" stroke="#63b8ff" d="M380.83,-232.08C347.43,-228.35 306.91,-217.45 285,-188 262.04,-157.14 286.48,-111.25 303.84,-85.77"/>
<polygon fill="#63b8ff" stroke="#63b8ff" points="306.62,-87.9 309.59,-77.72 300.93,-83.83 306.62,-87.9"/>
</a>
</g>
</g>
<!-- Node19&#45;&gt;Node16 -->
<g id="edge35_Node000019_Node000016" class="edge">
<title>Node19&#45;&gt;Node16</title>
<g id="a_edge35_Node000019_Node000016"><a xlink:title=" ">
<path fill="none" stroke="#63b8ff" d="M443.27,-223.62C459.45,-205.27 495.52,-164.37 516.34,-140.75"/>
<polygon fill="#63b8ff" stroke="#63b8ff" points="518.76,-143.31 522.75,-133.49 513.51,-138.68 518.76,-143.31"/>
</a>
</g>
</g>
<!-- Node19&#45;&gt;Node18 -->
<g id="edge34_Node000019_Node000018" class="edge">
<title>Node19&#45;&gt;Node18</title>
<g id="a_edge34_Node000019_Node000018"><a xlink:title=" ">
<path fill="none" stroke="#63b8ff" d="M489.15,-225.88C566.96,-215.66 709.72,-196.91 789.05,-186.48"/>
<polygon fill="#63b8ff" stroke="#63b8ff" points="789.32,-189.98 798.78,-185.2 788.41,-183.04 789.32,-189.98"/>
</a>
</g>
</g>
<!-- Node20&#45;&gt;Node2 -->
<g id="edge37_Node000020_Node000002" class="edge">
<title>Node20&#45;&gt;Node2</title>
<g id="a_edge37_Node000020_Node000002"><a xlink:title=" ">
<path fill="none" stroke="#63b8ff" d="M300.19,-282.34C260.81,-276.06 206.84,-264.45 163,-244 119.26,-223.59 76,-227.27 76,-179 76,-179 76,-179 76,-121 76,-75.39 123.84,-42.71 157.54,-25.35"/>
<polygon fill="#63b8ff" stroke="#63b8ff" points="158.69,-28.68 166.12,-21.12 155.6,-22.4 158.69,-28.68"/>
</a>
</g>
</g>
<!-- Node20&#45;&gt;Node9 -->
<g id="edge38_Node000020_Node000009" class="edge">
<title>Node20&#45;&gt;Node9</title>
<g id="a_edge38_Node000020_Node000009"><a xlink:title=" ">
<path fill="none" stroke="#63b8ff" d="M407.85,-284.44C535.28,-273.66 852.54,-246.8 957.6,-237.91"/>
<polygon fill="#63b8ff" stroke="#63b8ff" points="957.88,-241.4 967.55,-237.07 957.29,-234.43 957.88,-241.4"/>
</a>
</g>
</g>
<!-- Node20&#45;&gt;Node12 -->
<g id="edge44_Node000020_Node000012" class="edge">
<title>Node20&#45;&gt;Node12</title>
<g id="a_edge44_Node000020_Node000012"><a xlink:title=" ">
<path fill="none" stroke="#63b8ff" d="M407.77,-279.84C463.67,-270.32 551,-255.44 609.58,-245.46"/>
<polygon fill="#63b8ff" stroke="#63b8ff" points="610.13,-248.92 619.4,-243.79 608.95,-242.02 610.13,-248.92"/>
</a>
</g>
</g>
<!-- Node20&#45;&gt;Node13 -->
<g id="edge43_Node000020_Node000013" class="edge">
<title>Node20&#45;&gt;Node13</title>
<g id="a_edge43_Node000020_Node000013"><a xlink:title=" ">
<path fill="none" stroke="#63b8ff" d="M349.86,-279.57C346.18,-270.62 341.06,-256.68 339,-244 336.61,-229.28 337.48,-212.46 338.89,-199.62"/>
<polygon fill="#63b8ff" stroke="#63b8ff" points="342.34,-200.2 340.17,-189.83 335.4,-199.29 342.34,-200.2"/>
</a>
</g>
</g>
<!-- Node20&#45;&gt;Node14 -->
<g id="edge39_Node000020_Node000014" class="edge">
<title>Node20&#45;&gt;Node14</title>
<g id="a_edge39_Node000020_Node000014"><a xlink:title=" ">
<path fill="none" stroke="#63b8ff" d="M300.36,-281.26C247.49,-270.47 169.48,-245.29 133,-188 92.63,-124.61 222.25,-87.4 285.44,-73.41"/>
<polygon fill="#63b8ff" stroke="#63b8ff" points="285.88,-76.89 294.92,-71.38 284.41,-70.05 285.88,-76.89"/>
</a>
</g>
</g>
<!-- Node20&#45;&gt;Node16 -->
<g id="edge40_Node000020_Node000016" class="edge">
<title>Node20&#45;&gt;Node16</title>
<g id="a_edge40_Node000020_Node000016"><a xlink:title=" ">
<path fill="none" stroke="#63b8ff" d="M354.49,-279.69C355.64,-266.18 359.43,-240.92 372,-224 403.65,-181.4 459.07,-152.34 495.66,-136.7"/>
<polygon fill="#63b8ff" stroke="#63b8ff" points="496.6,-140.1 504.5,-133.04 493.92,-133.63 496.6,-140.1"/>
</a>
</g>
</g>
<!-- Node20&#45;&gt;Node17 -->
<g id="edge41_Node000020_Node000017" class="edge">
<title>Node20&#45;&gt;Node17</title>
<g id="a_edge41_Node000020_Node000017"><a xlink:title=" ">
<path fill="none" stroke="#63b8ff" d="M386.2,-279.51C415.49,-270.73 459.86,-257.11 498,-244 546.46,-227.34 601.79,-206.17 636.56,-192.6"/>
<polygon fill="#63b8ff" stroke="#63b8ff" points="637.64,-195.93 645.68,-189.03 635.09,-189.41 637.64,-195.93"/>
</a>
</g>
</g>
<!-- Node20&#45;&gt;Node18 -->
<g id="edge42_Node000020_Node000018" class="edge">
<title>Node20&#45;&gt;Node18</title>
<g id="a_edge42_Node000020_Node000018"><a xlink:title=" ">
<path fill="none" stroke="#63b8ff" d="M407.84,-285.37C497.11,-278.89 671.73,-264.09 730,-244 746.21,-238.41 748.12,-232.53 763,-224 781.19,-213.56 801.94,-202.32 818.14,-193.68"/>
<polygon fill="#63b8ff" stroke="#63b8ff" points="819.53,-196.9 826.72,-189.12 816.24,-190.72 819.53,-196.9"/>
</a>
</g>
</g>
<!-- Node20&#45;&gt;Node19 -->
<g id="edge45_Node000020_Node000019" class="edge">
<title>Node20&#45;&gt;Node19</title>
<g id="a_edge45_Node000020_Node000019"><a xlink:title=" ">
<path fill="none" stroke="#63b8ff" d="M368.11,-279.59C380,-271.67 397.27,-260.16 411.28,-250.82"/>
<polygon fill="#63b8ff" stroke="#63b8ff" points="413.14,-253.78 419.52,-245.32 409.26,-247.95 413.14,-253.78"/>
</a>
</g>
</g>
<!-- Node21 -->
<g id="Node000021" class="node">
<title>Node21</title>
<g id="a_Node000021"><a xlink:href="light_8cuh.html" target="_top" xlink:title="Light source types and data structure.">
<polygon fill="white" stroke="#666666" points="237.75,-188 142.25,-188 142.25,-168 237.75,-168 237.75,-188"/>
<text xml:space="preserve" text-anchor="middle" x="190" y="-174.5" font-family="Helvetica,sans-Serif" font-size="10.00">rendering/light.cuh</text>
</a>
</g>
</g>
<!-- Node20&#45;&gt;Node21 -->
<g id="edge46_Node000020_Node000021" class="edge">
<title>Node20&#45;&gt;Node21</title>
<g id="a_edge46_Node000020_Node000021"><a xlink:title=" ">
<path fill="none" stroke="#63b8ff" d="M340.02,-279.62C311.82,-260.71 247.87,-217.82 213.27,-194.61"/>
<polygon fill="#63b8ff" stroke="#63b8ff" points="215.46,-191.86 205.2,-189.2 211.56,-197.68 215.46,-191.86"/>
</a>
</g>
</g>
<!-- Node21&#45;&gt;Node2 -->
<g id="edge49_Node000021_Node000002" class="edge">
<title>Node21&#45;&gt;Node2</title>
<g id="a_edge49_Node000021_Node000002"><a xlink:title=" ">
<path fill="none" stroke="#63b8ff" d="M190,-167.6C190,-141.46 190,-67.48 190,-31.36"/>
<polygon fill="#63b8ff" stroke="#63b8ff" points="193.5,-31.81 190,-21.81 186.5,-31.81 193.5,-31.81"/>
</a>
</g>
</g>
<!-- Node21&#45;&gt;Node5 -->
<g id="edge48_Node000021_Node000005" class="edge">
<title>Node21&#45;&gt;Node5</title>
<g id="a_edge48_Node000021_Node000005"><a xlink:title=" ">
<path fill="none" stroke="#63b8ff" d="M207.05,-167.54C233.85,-153.12 287.85,-125.85 337,-112 433.12,-84.91 549.44,-73.96 616.95,-69.66"/>
<polygon fill="#63b8ff" stroke="#63b8ff" points="616.88,-73.17 626.65,-69.07 616.45,-66.18 616.88,-73.17"/>
</a>
</g>
</g>
<!-- Node21&#45;&gt;Node16 -->
<g id="edge47_Node000021_Node000016" class="edge">
<title>Node21&#45;&gt;Node16</title>
<g id="a_edge47_Node000021_Node000016"><a xlink:title=" ">
<path fill="none" stroke="#63b8ff" d="M237.91,-169.43C302.25,-159.28 416.05,-141.31 481.62,-130.95"/>
<polygon fill="#63b8ff" stroke="#63b8ff" points="482.06,-134.43 491.4,-129.41 480.97,-127.51 482.06,-134.43"/>
</a>
</g>
</g>
<!-- Node22&#45;&gt;Node3 -->
<g id="edge52_Node000022_Node000003" class="edge">
<title>Node22&#45;&gt;Node3</title>
<g id="a_edge52_Node000022_Node000003"><a xlink:title=" ">
<path fill="none" stroke="#63b8ff" d="M904.18,-335.57C942.53,-327.15 1000.4,-314.3 1059.65,-300.52"/>
<polygon fill="#63b8ff" stroke="#63b8ff" points="1060.31,-303.96 1069.26,-298.28 1058.72,-297.14 1060.31,-303.96"/>
</a>
</g>
</g>
<!-- Node22&#45;&gt;Node9 -->
<g id="edge51_Node000022_Node000009" class="edge">
<title>Node22&#45;&gt;Node9</title>
<g id="a_edge51_Node000022_Node000009"><a xlink:title=" ">
<path fill="none" stroke="#63b8ff" d="M868.28,-335.93C879.13,-322.72 900.59,-297.82 922,-280 935.36,-268.88 951.63,-258.27 965.11,-250.15"/>
<polygon fill="#63b8ff" stroke="#63b8ff" points="966.64,-253.31 973.49,-245.22 963.09,-247.28 966.64,-253.31"/>
</a>
</g>
</g>
<!-- Node22&#45;&gt;Node12 -->
<g id="edge56_Node000022_Node000012" class="edge">
<title>Node22&#45;&gt;Node12</title>
<g id="a_edge56_Node000022_Node000012"><a xlink:title=" ">
<path fill="none" stroke="#63b8ff" d="M801.87,-337.74C771.89,-331.64 736.36,-320.46 710,-300 695.07,-288.41 684.62,-269.37 678.32,-254.88"/>
<polygon fill="#63b8ff" stroke="#63b8ff" points="681.68,-253.86 674.71,-245.88 675.18,-256.46 681.68,-253.86"/>
</a>
</g>
</g>
<!-- Node22&#45;&gt;Node18 -->
<g id="edge55_Node000022_Node000018" class="edge">
<title>Node22&#45;&gt;Node18</title>
<g id="a_edge55_Node000022_Node000018"><a xlink:title=" ">
<path fill="none" stroke="#63b8ff" d="M860.15,-335.6C857.79,-309.46 851.1,-235.48 847.84,-199.36"/>
<polygon fill="#63b8ff" stroke="#63b8ff" points="851.36,-199.45 846.98,-189.8 844.39,-200.08 851.36,-199.45"/>
</a>
</g>
</g>
<!-- Node22&#45;&gt;Node19 -->
<g id="edge57_Node000022_Node000019" class="edge">
<title>Node22&#45;&gt;Node19</title>
<g id="a_edge57_Node000022_Node000019"><a xlink:title=" ">
<path fill="none" stroke="#63b8ff" d="M801.57,-345.08C733.7,-343.35 620.38,-334.8 530,-300 500.78,-288.75 471.74,-266.92 453.61,-251.68"/>
<polygon fill="#63b8ff" stroke="#63b8ff" points="456.18,-249.27 446.32,-245.39 451.6,-254.57 456.18,-249.27"/>
</a>
</g>
</g>
<!-- Node23 -->
<g id="Node000023" class="node">
<title>Node23</title>
<g id="a_Node000023"><a xlink:href="scene__config_8cuh.html" target="_top" xlink:title="Global configuration for active scenes and buffer limits.">
<polygon fill="white" stroke="#666666" points="1052.88,-300 931.12,-300 931.12,-280 1052.88,-280 1052.88,-300"/>
<text xml:space="preserve" text-anchor="middle" x="992" y="-286.5" font-family="Helvetica,sans-Serif" font-size="10.00">config/scene_config.cuh</text>
</a>
</g>
</g>
<!-- Node22&#45;&gt;Node23 -->
<g id="edge53_Node000022_Node000023" class="edge">
<title>Node22&#45;&gt;Node23</title>
<g id="a_edge53_Node000022_Node000023"><a xlink:title=" ">
<path fill="none" stroke="#63b8ff" d="M883.82,-335.59C904.45,-327.09 935.08,-314.46 958.49,-304.81"/>
<polygon fill="#63b8ff" stroke="#63b8ff" points="959.69,-308.1 967.6,-301.06 957.02,-301.63 959.69,-308.1"/>
</a>
</g>
</g>
<!-- Node24 -->
<g id="Node000024" class="node">
<title>Node24</title>
<g id="a_Node000024"><a xlink:href="basic__boxes_8cuh.html" target="_top" xlink:title="Helpers to append axis&#45;aligned / yaw&#45;rotated boxes as 6 quads.">
<polygon fill="white" stroke="#666666" points="663,-300 539,-300 539,-280 663,-280 663,-300"/>
<text xml:space="preserve" text-anchor="middle" x="601" y="-286.5" font-family="Helvetica,sans-Serif" font-size="10.00">scenes/basic_boxes.cuh</text>
</a>
</g>
</g>
<!-- Node22&#45;&gt;Node24 -->
<g id="edge58_Node000022_Node000024" class="edge">
<title>Node22&#45;&gt;Node24</title>
<g id="a_edge58_Node000022_Node000024"><a xlink:title=" ">
<path fill="none" stroke="#63b8ff" d="M815.41,-335.53C771.46,-326.4 704.82,-312.56 657.52,-302.74"/>
<polygon fill="#63b8ff" stroke="#63b8ff" points="658.52,-299.37 648.02,-300.76 657.09,-306.23 658.52,-299.37"/>
</a>
</g>
</g>
<!-- Node25 -->
<g id="Node000025" class="node">
<title>Node25</title>
<g id="a_Node000025"><a xlink:href="cornell__box_8cuh.html" target="_top" xlink:title="Cornell box scene builder (5 walls + ground plane).">
<polygon fill="white" stroke="#666666" points="837.38,-300 718.62,-300 718.62,-280 837.38,-280 837.38,-300"/>
<text xml:space="preserve" text-anchor="middle" x="778" y="-286.5" font-family="Helvetica,sans-Serif" font-size="10.00">scenes/cornell_box.cuh</text>
</a>
</g>
</g>
<!-- Node22&#45;&gt;Node25 -->
<g id="edge64_Node000022_Node000025" class="edge">
<title>Node22&#45;&gt;Node25</title>
<g id="a_edge64_Node000022_Node000025"><a xlink:title=" ">
<path fill="none" stroke="#63b8ff" d="M846.54,-335.59C834.24,-327.59 816.32,-315.93 801.89,-306.54"/>
<polygon fill="#63b8ff" stroke="#63b8ff" points="804.13,-303.82 793.84,-301.3 800.31,-309.69 804.13,-303.82"/>
</a>
</g>
</g>
<!-- Node23&#45;&gt;Node9 -->
<g id="edge54_Node000023_Node000009" class="edge">
<title>Node23&#45;&gt;Node9</title>
<g id="a_edge54_Node000023_Node000009"><a xlink:title=" ">
<path fill="none" stroke="#63b8ff" d="M992,-279.59C992,-273.01 992,-263.96 992,-255.73"/>
<polygon fill="#63b8ff" stroke="#63b8ff" points="995.5,-255.81 992,-245.81 988.5,-255.81 995.5,-255.81"/>
</a>
</g>
</g>
<!-- Node24&#45;&gt;Node5 -->
<g id="edge60_Node000024_Node000005" class="edge">
<title>Node24&#45;&gt;Node5</title>
<g id="a_edge60_Node000024_Node000005"><a xlink:title=" ">
<path fill="none" stroke="#63b8ff" d="M653.9,-279.53C732.8,-264.12 874.88,-230.97 901,-188 943.58,-117.97 808.94,-86.24 728.57,-73.83"/>
<polygon fill="#63b8ff" stroke="#63b8ff" points="729.52,-70.43 719.11,-72.43 728.49,-77.36 729.52,-70.43"/>
</a>
</g>
</g>
<!-- Node24&#45;&gt;Node12 -->
<g id="edge62_Node000024_Node000012" class="edge">
<title>Node24&#45;&gt;Node12</title>
<g id="a_edge62_Node000024_Node000012"><a xlink:title=" ">
<path fill="none" stroke="#63b8ff" d="M613.19,-279.59C623.33,-271.77 637.99,-260.46 650.01,-251.19"/>
<polygon fill="#63b8ff" stroke="#63b8ff" points="651.97,-254.1 657.75,-245.22 647.69,-248.56 651.97,-254.1"/>
</a>
</g>
</g>
<!-- Node24&#45;&gt;Node14 -->
<g id="edge59_Node000024_Node000014" class="edge">
<title>Node24&#45;&gt;Node14</title>
<g id="a_edge59_Node000024_Node000014"><a xlink:title=" ">
<path fill="none" stroke="#63b8ff" d="M591.65,-279.87C563.42,-252.55 476.01,-169.76 395,-112 379.43,-100.9 360.96,-90.04 346.02,-81.76"/>
<polygon fill="#63b8ff" stroke="#63b8ff" points="348.1,-78.91 337.64,-77.21 344.75,-85.06 348.1,-78.91"/>
</a>
</g>
</g>
<!-- Node24&#45;&gt;Node16 -->
<g id="edge61_Node000024_Node000016" class="edge">
<title>Node24&#45;&gt;Node16</title>
<g id="a_edge61_Node000024_Node000016"><a xlink:title=" ">
<path fill="none" stroke="#63b8ff" d="M597.09,-279.6C586.18,-253.35 555.21,-178.84 540.27,-142.89"/>
<polygon fill="#63b8ff" stroke="#63b8ff" points="543.52,-141.59 536.45,-133.7 537.05,-144.27 543.52,-141.59"/>
</a>
</g>
</g>
<!-- Node24&#45;&gt;Node18 -->
<g id="edge63_Node000024_Node000018" class="edge">
<title>Node24&#45;&gt;Node18</title>
<g id="a_edge63_Node000024_Node000018"><a xlink:title=" ">
<path fill="none" stroke="#63b8ff" d="M655.11,-279.54C687.56,-272.53 729,-261.17 763,-244 787.86,-231.45 812.48,-210.86 828.37,-196.22"/>
<polygon fill="#63b8ff" stroke="#63b8ff" points="830.69,-198.84 835.56,-189.43 825.88,-193.75 830.69,-198.84"/>
</a>
</g>
</g>
<!-- Node25&#45;&gt;Node12 -->
<g id="edge65_Node000025_Node000012" class="edge">
<title>Node25&#45;&gt;Node12</title>
<g id="a_edge65_Node000025_Node000012"><a xlink:title=" ">
<path fill="none" stroke="#63b8ff" d="M759.36,-279.59C742.97,-271.32 718.84,-259.14 699.94,-249.6"/>
<polygon fill="#63b8ff" stroke="#63b8ff" points="701.64,-246.54 691.13,-245.16 698.49,-252.79 701.64,-246.54"/>
</a>
</g>
</g>
<!-- Node25&#45;&gt;Node18 -->
<g id="edge66_Node000025_Node000018" class="edge">
<title>Node25&#45;&gt;Node18</title>
<g id="a_edge66_Node000025_Node000018"><a xlink:title=" ">
<path fill="none" stroke="#63b8ff" d="M783.8,-279.62C794.94,-261.6 819.53,-221.81 834.24,-198.02"/>
<polygon fill="#63b8ff" stroke="#63b8ff" points="837.14,-199.99 839.42,-189.64 831.19,-196.31 837.14,-199.99"/>
</a>
</g>
</g>
</g>
</svg>
