<?xml version="1.0" encoding="UTF-8" standalone="no"?>
<!DOCTYPE svg PUBLIC "-//W3C//DTD SVG 1.1//EN"
 "http://www.w3.org/Graphics/SVG/1.1/DTD/svg11.dtd">
<!-- Generated by graphviz version 14.0.2 (20251019.1705)
 -->
<!-- Title: shader.cuh Pages: 1 -->
<svg width="752pt" height="308pt"
 viewBox="0.00 0.00 752.00 308.00" xmlns="http://www.w3.org/2000/svg" xmlns:xlink="http://www.w3.org/1999/xlink">
<g id="graph0" class="graph" transform="scale(1 1) rotate(0) translate(4 304)">
<title>shader.cuh</title>
<!-- Node1 -->
<g id="Node000001" class="node">
<title>Node1</title>
<g id="a_Node000001"><a xlink:title="Compact shading utilities for CPU &amp; GPU.">
<polygon fill="#999999" stroke="#666666" points="443,-300 379,-300 379,-280 443,-280 443,-300"/>
<text xml:space="preserve" text-anchor="middle" x="411" y="-286.5" font-family="Helvetica,sans-Serif" font-size="10.00">shader.cuh</text>
</a>
</g>
</g>
<!-- Node2 -->
<g id="Node000002" class="node">
<title>Node2</title>
<g id="a_Node000002"><a xlink:title=" ">
<polygon fill="#e0e0e0" stroke="#999999" points="155.38,-20 72.62,-20 72.62,0 155.38,0 155.38,-20"/>
<text xml:space="preserve" text-anchor="middle" x="114" y="-6.5" font-family="Helvetica,sans-Serif" font-size="10.00">cuda_runtime.h</text>
</a>
</g>
</g>
<!-- Node1&#45;&gt;Node2 -->
<g id="edge1_Node000001_Node000002" class="edge">
<title>Node1&#45;&gt;Node2</title>
<g id="a_edge1_Node000001_Node000002"><a xlink:title=" ">
<path fill="none" stroke="#63b8ff" d="M378.75,-287.31C281.86,-281.35 0,-257.3 0,-179 0,-179 0,-179 0,-121 0,-75.39 47.84,-42.71 81.54,-25.35"/>
<polygon fill="#63b8ff" stroke="#63b8ff" points="82.69,-28.68 90.12,-21.12 79.6,-22.4 82.69,-28.68"/>
</a>
</g>
</g>
<!-- Node3 -->
<g id="Node000003" class="node">
<title>Node3</title>
<g id="a_Node000003"><a xlink:title=" ">
<polygon fill="#e0e0e0" stroke="#999999" points="743.62,-244 698.38,-244 698.38,-224 743.62,-224 743.62,-244"/>
<text xml:space="preserve" text-anchor="middle" x="721" y="-230.5" font-family="Helvetica,sans-Serif" font-size="10.00">cstdint</text>
</a>
</g>
</g>
<!-- Node1&#45;&gt;Node3 -->
<g id="edge2_Node000001_Node000003" class="edge">
<title>Node1&#45;&gt;Node3</title>
<g id="a_edge2_Node000001_Node000003"><a xlink:title=" ">
<path fill="none" stroke="#63b8ff" d="M443.09,-284.51C494.25,-277.17 597.39,-261.64 684,-244 684.99,-243.8 686,-243.59 687.01,-243.37"/>
<polygon fill="#63b8ff" stroke="#63b8ff" points="687.51,-246.85 696.49,-241.22 685.96,-240.02 687.51,-246.85"/>
</a>
</g>
</g>
<!-- Node4 -->
<g id="Node000004" class="node">
<title>Node4</title>
<g id="a_Node000004"><a xlink:title=" ">
<polygon fill="#e0e0e0" stroke="#999999" points="541.5,-76 498.5,-76 498.5,-56 541.5,-56 541.5,-76"/>
<text xml:space="preserve" text-anchor="middle" x="520" y="-62.5" font-family="Helvetica,sans-Serif" font-size="10.00">cmath</text>
</a>
</g>
</g>
<!-- Node1&#45;&gt;Node4 -->
<g id="edge3_Node000001_Node000004" class="edge">
<title>Node1&#45;&gt;Node4</title>
<g id="a_edge3_Node000001_Node000004"><a xlink:title=" ">
<path fill="none" stroke="#63b8ff" d="M443.37,-285.14C476.22,-279.99 527.45,-268.52 565,-244 616.22,-210.56 628.9,-191.02 645,-132 647.34,-123.42 650.11,-119.27 645,-112 639.45,-104.1 587.72,-87.29 552.57,-76.6"/>
<polygon fill="#63b8ff" stroke="#63b8ff" points="553.85,-73.34 543.27,-73.8 551.83,-80.04 553.85,-73.34"/>
</a>
</g>
</g>
<!-- Node5 -->
<g id="Node000005" class="node">
<title>Node5</title>
<g id="a_Node000005"><a xlink:href="vec3_8cuh.html" target="_top" xlink:title="Basic 3D vector type for points, directions, and colors.">
<polygon fill="white" stroke="#666666" points="430.75,-132 353.25,-132 353.25,-112 430.75,-112 430.75,-132"/>
<text xml:space="preserve" text-anchor="middle" x="392" y="-118.5" font-family="Helvetica,sans-Serif" font-size="10.00">core/vec3.cuh</text>
</a>
</g>
</g>
<!-- Node1&#45;&gt;Node5 -->
<g id="edge4_Node000001_Node000005" class="edge">
<title>Node1&#45;&gt;Node5</title>
<g id="a_edge4_Node000001_Node000005"><a xlink:title=" ">
<path fill="none" stroke="#63b8ff" d="M409.92,-279.6C406.93,-253.46 398.47,-179.48 394.33,-143.36"/>
<polygon fill="#63b8ff" stroke="#63b8ff" points="397.85,-143.34 393.24,-133.8 390.9,-144.13 397.85,-143.34"/>
</a>
</g>
</g>
<!-- Node9 -->
<g id="Node000009" class="node">
<title>Node9</title>
<g id="a_Node000009"><a xlink:href="ray_8cuh.html" target="_top" xlink:title="Mathematical ray type for 3D space.">
<polygon fill="white" stroke="#666666" points="363.62,-188 294.38,-188 294.38,-168 363.62,-168 363.62,-188"/>
<text xml:space="preserve" text-anchor="middle" x="329" y="-174.5" font-family="Helvetica,sans-Serif" font-size="10.00">core/ray.cuh</text>
</a>
</g>
</g>
<!-- Node1&#45;&gt;Node9 -->
<g id="edge10_Node000001_Node000009" class="edge">
<title>Node1&#45;&gt;Node9</title>
<g id="a_edge10_Node000001_Node000009"><a xlink:title=" ">
<path fill="none" stroke="#63b8ff" d="M406.5,-279.73C399.97,-266.7 387.11,-242.5 373,-224 365.51,-214.17 356.05,-204.25 347.82,-196.23"/>
<polygon fill="#63b8ff" stroke="#63b8ff" points="350.29,-193.75 340.63,-189.41 345.48,-198.83 350.29,-193.75"/>
</a>
</g>
</g>
<!-- Node10 -->
<g id="Node000010" class="node">
<title>Node10</title>
<g id="a_Node000010"><a xlink:href="material_8cuh.html" target="_top" xlink:title="Surface material definitions and presets.">
<polygon fill="white" stroke="#666666" points="159.5,-132 68.5,-132 68.5,-112 159.5,-112 159.5,-132"/>
<text xml:space="preserve" text-anchor="middle" x="114" y="-118.5" font-family="Helvetica,sans-Serif" font-size="10.00">core/material.cuh</text>
</a>
</g>
</g>
<!-- Node1&#45;&gt;Node10 -->
<g id="edge13_Node000001_Node000010" class="edge">
<title>Node1&#45;&gt;Node10</title>
<g id="a_edge13_Node000001_Node000010"><a xlink:title=" ">
<path fill="none" stroke="#63b8ff" d="M378.54,-289.63C314.62,-288.85 173.73,-276.64 117,-188 108.61,-174.89 108.38,-157.06 109.96,-143.39"/>
<polygon fill="#63b8ff" stroke="#63b8ff" points="113.38,-144.18 111.5,-133.75 106.47,-143.07 113.38,-144.18"/>
</a>
</g>
</g>
<!-- Node11 -->
<g id="Node000011" class="node">
<title>Node11</title>
<g id="a_Node000011"><a xlink:href="numerics_8cuh.html" target="_top" xlink:title="Small numeric helpers and constants (angles, tolerances, clamps).">
<polygon fill="white" stroke="#666666" points="636.12,-132 539.88,-132 539.88,-112 636.12,-112 636.12,-132"/>
<text xml:space="preserve" text-anchor="middle" x="588" y="-118.5" font-family="Helvetica,sans-Serif" font-size="10.00">core/numerics.cuh</text>
</a>
</g>
</g>
<!-- Node1&#45;&gt;Node11 -->
<g id="edge16_Node000001_Node000011" class="edge">
<title>Node1&#45;&gt;Node11</title>
<g id="a_edge16_Node000001_Node000011"><a xlink:title=" ">
<path fill="none" stroke="#63b8ff" d="M443.37,-281.94C486.76,-270.54 562.15,-243.51 595,-188 603.05,-174.4 600.27,-156.37 596.07,-142.75"/>
<polygon fill="#63b8ff" stroke="#63b8ff" points="599.44,-141.78 592.75,-133.56 592.85,-144.15 599.44,-141.78"/>
</a>
</g>
</g>
<!-- Node13 -->
<g id="Node000013" class="node">
<title>Node13</title>
<g id="a_Node000013"><a xlink:href="quad_8cuh.html" target="_top" xlink:title="Quad primitive for ray tracing.">
<polygon fill="white" stroke="#666666" points="363.62,-244 264.38,-244 264.38,-224 363.62,-224 363.62,-244"/>
<text xml:space="preserve" text-anchor="middle" x="314" y="-230.5" font-family="Helvetica,sans-Serif" font-size="10.00">geometry/quad.cuh</text>
</a>
</g>
</g>
<!-- Node1&#45;&gt;Node13 -->
<g id="edge20_Node000001_Node000013" class="edge">
<title>Node1&#45;&gt;Node13</title>
<g id="a_edge20_Node000001_Node000013"><a xlink:title=" ">
<path fill="none" stroke="#63b8ff" d="M394.1,-279.59C379.45,-271.44 357.98,-259.48 340.95,-250"/>
<polygon fill="#63b8ff" stroke="#63b8ff" points="342.79,-247.02 332.35,-245.22 339.39,-253.14 342.79,-247.02"/>
</a>
</g>
</g>
<!-- Node14 -->
<g id="Node000014" class="node">
<title>Node14</title>
<g id="a_Node000014"><a xlink:href="sphere_8cuh.html" target="_top" xlink:title="Sphere primitive and analytic ray–sphere intersection.">
<polygon fill="white" stroke="#666666" points="565.75,-188 458.25,-188 458.25,-168 565.75,-168 565.75,-188"/>
<text xml:space="preserve" text-anchor="middle" x="512" y="-174.5" font-family="Helvetica,sans-Serif" font-size="10.00">geometry/sphere.cuh</text>
</a>
</g>
</g>
<!-- Node1&#45;&gt;Node14 -->
<g id="edge27_Node000001_Node000014" class="edge">
<title>Node1&#45;&gt;Node14</title>
<g id="a_edge27_Node000001_Node000014"><a xlink:title=" ">
<path fill="none" stroke="#63b8ff" d="M419.61,-279.62C436.46,-261.27 474.01,-220.37 495.7,-196.75"/>
<polygon fill="#63b8ff" stroke="#63b8ff" points="498.2,-199.2 502.39,-189.47 493.05,-194.47 498.2,-199.2"/>
</a>
</g>
</g>
<!-- Node15 -->
<g id="Node000015" class="node">
<title>Node15</title>
<g id="a_Node000015"><a xlink:href="light_8cuh.html" target="_top" xlink:title="Light source types and data structure.">
<polygon fill="white" stroke="#666666" points="237.75,-188 142.25,-188 142.25,-168 237.75,-168 237.75,-188"/>
<text xml:space="preserve" text-anchor="middle" x="190" y="-174.5" font-family="Helvetica,sans-Serif" font-size="10.00">rendering/light.cuh</text>
</a>
</g>
</g>
<!-- Node1&#45;&gt;Node15 -->
<g id="edge33_Node000001_Node000015" class="edge">
<title>Node1&#45;&gt;Node15</title>
<g id="a_edge33_Node000001_Node000015"><a xlink:title=" ">
<path fill="none" stroke="#63b8ff" d="M378.64,-284.54C345.71,-278.92 294.08,-267.06 255,-244 234.48,-231.89 215.79,-211.8 203.77,-197.15"/>
<polygon fill="#63b8ff" stroke="#63b8ff" points="206.77,-195.31 197.82,-189.64 201.28,-199.65 206.77,-195.31"/>
</a>
</g>
</g>
<!-- Node5&#45;&gt;Node4 -->
<g id="edge5_Node000005_Node000004" class="edge">
<title>Node5&#45;&gt;Node4</title>
<g id="a_edge5_Node000005_Node000004"><a xlink:title=" ">
<path fill="none" stroke="#63b8ff" d="M414.3,-111.59C434.61,-103.02 464.85,-90.27 487.79,-80.59"/>
<polygon fill="#63b8ff" stroke="#63b8ff" points="489.14,-83.82 496.99,-76.71 486.42,-77.37 489.14,-83.82"/>
</a>
</g>
</g>
<!-- Node6 -->
<g id="Node000006" class="node">
<title>Node6</title>
<g id="a_Node000006"><a xlink:href="macros_8cuh.html" target="_top" xlink:title="Project&#45;wide CUDA/host qualifiers and debug/guard macros.">
<polygon fill="white" stroke="#666666" points="334.38,-76 245.62,-76 245.62,-56 334.38,-56 334.38,-76"/>
<text xml:space="preserve" text-anchor="middle" x="290" y="-62.5" font-family="Helvetica,sans-Serif" font-size="10.00">core/macros.cuh</text>
</a>
</g>
</g>
<!-- Node5&#45;&gt;Node6 -->
<g id="edge6_Node000005_Node000006" class="edge">
<title>Node5&#45;&gt;Node6</title>
<g id="a_edge6_Node000005_Node000006"><a xlink:title=" ">
<path fill="none" stroke="#63b8ff" d="M374.23,-111.59C358.68,-103.36 335.82,-91.26 317.84,-81.74"/>
<polygon fill="#63b8ff" stroke="#63b8ff" points="319.72,-78.77 309.24,-77.19 316.44,-84.96 319.72,-78.77"/>
</a>
</g>
</g>
<!-- Node6&#45;&gt;Node2 -->
<g id="edge7_Node000006_Node000002" class="edge">
<title>Node6&#45;&gt;Node2</title>
<g id="a_edge7_Node000006_Node000002"><a xlink:title=" ">
<path fill="none" stroke="#63b8ff" d="M259.34,-55.59C230.62,-46.78 187.47,-33.54 155.64,-23.78"/>
<polygon fill="#63b8ff" stroke="#63b8ff" points="156.93,-20.51 146.34,-20.92 154.88,-27.2 156.93,-20.51"/>
</a>
</g>
</g>
<!-- Node7 -->
<g id="Node000007" class="node">
<title>Node7</title>
<g id="a_Node000007"><a xlink:title=" ">
<polygon fill="#e0e0e0" stroke="#999999" points="341.12,-20 298.88,-20 298.88,0 341.12,0 341.12,-20"/>
<text xml:space="preserve" text-anchor="middle" x="320" y="-6.5" font-family="Helvetica,sans-Serif" font-size="10.00">cstdio</text>
</a>
</g>
</g>
<!-- Node6&#45;&gt;Node7 -->
<g id="edge8_Node000006_Node000007" class="edge">
<title>Node6&#45;&gt;Node7</title>
<g id="a_edge8_Node000006_Node000007"><a xlink:title=" ">
<path fill="none" stroke="#63b8ff" d="M295.23,-55.59C299.1,-48.63 304.51,-38.89 309.28,-30.29"/>
<polygon fill="#63b8ff" stroke="#63b8ff" points="312.3,-32.06 314.1,-21.62 306.18,-28.66 312.3,-32.06"/>
</a>
</g>
</g>
<!-- Node8 -->
<g id="Node000008" class="node">
<title>Node8</title>
<g id="a_Node000008"><a xlink:title=" ">
<polygon fill="#e0e0e0" stroke="#999999" points="281.25,-20 236.75,-20 236.75,0 281.25,0 281.25,-20"/>
<text xml:space="preserve" text-anchor="middle" x="259" y="-6.5" font-family="Helvetica,sans-Serif" font-size="10.00">cstdlib</text>
</a>
</g>
</g>
<!-- Node6&#45;&gt;Node8 -->
<g id="edge9_Node000006_Node000008" class="edge">
<title>Node6&#45;&gt;Node8</title>
<g id="a_edge9_Node000006_Node000008"><a xlink:title=" ">
<path fill="none" stroke="#63b8ff" d="M284.6,-55.59C280.56,-48.55 274.88,-38.67 269.91,-30"/>
<polygon fill="#63b8ff" stroke="#63b8ff" points="273.11,-28.54 265.09,-21.61 267.03,-32.03 273.11,-28.54"/>
</a>
</g>
</g>
<!-- Node9&#45;&gt;Node5 -->
<g id="edge11_Node000009_Node000005" class="edge">
<title>Node9&#45;&gt;Node5</title>
<g id="a_edge11_Node000009_Node000005"><a xlink:title=" ">
<path fill="none" stroke="#63b8ff" d="M339.97,-167.59C348.92,-159.93 361.77,-148.91 372.46,-139.75"/>
<polygon fill="#63b8ff" stroke="#63b8ff" points="374.69,-142.45 380,-133.28 370.13,-137.13 374.69,-142.45"/>
</a>
</g>
</g>
<!-- Node9&#45;&gt;Node6 -->
<g id="edge12_Node000009_Node000006" class="edge">
<title>Node9&#45;&gt;Node6</title>
<g id="a_edge12_Node000009_Node000006"><a xlink:title=" ">
<path fill="none" stroke="#63b8ff" d="M325.67,-167.62C319.37,-149.84 305.56,-110.88 297.09,-87"/>
<polygon fill="#63b8ff" stroke="#63b8ff" points="300.46,-86.04 293.82,-77.78 293.87,-88.38 300.46,-86.04"/>
</a>
</g>
</g>
<!-- Node10&#45;&gt;Node2 -->
<g id="edge14_Node000010_Node000002" class="edge">
<title>Node10&#45;&gt;Node2</title>
<g id="a_edge14_Node000010_Node000002"><a xlink:title=" ">
<path fill="none" stroke="#63b8ff" d="M114,-111.62C114,-94.01 114,-55.59 114,-31.65"/>
<polygon fill="#63b8ff" stroke="#63b8ff" points="117.5,-31.87 114,-21.87 110.5,-31.87 117.5,-31.87"/>
</a>
</g>
</g>
<!-- Node10&#45;&gt;Node6 -->
<g id="edge15_Node000010_Node000006" class="edge">
<title>Node10&#45;&gt;Node6</title>
<g id="a_edge15_Node000010_Node000006"><a xlink:title=" ">
<path fill="none" stroke="#63b8ff" d="M144.66,-111.59C173.38,-102.78 216.53,-89.54 248.36,-79.78"/>
<polygon fill="#63b8ff" stroke="#63b8ff" points="249.12,-83.2 257.66,-76.92 247.07,-76.51 249.12,-83.2"/>
</a>
</g>
</g>
<!-- Node11&#45;&gt;Node4 -->
<g id="edge18_Node000011_Node000004" class="edge">
<title>Node11&#45;&gt;Node4</title>
<g id="a_edge18_Node000011_Node000004"><a xlink:title=" ">
<path fill="none" stroke="#63b8ff" d="M576.16,-111.59C566.31,-103.77 552.07,-92.46 540.39,-83.19"/>
<polygon fill="#63b8ff" stroke="#63b8ff" points="542.9,-80.72 532.89,-77.24 538.55,-86.2 542.9,-80.72"/>
</a>
</g>
</g>
<!-- Node11&#45;&gt;Node6 -->
<g id="edge17_Node000011_Node000006" class="edge">
<title>Node11&#45;&gt;Node6</title>
<g id="a_edge17_Node000011_Node000006"><a xlink:title=" ">
<path fill="none" stroke="#63b8ff" d="M539.46,-112.2C486.38,-102.59 401.47,-87.2 345.71,-77.1"/>
<polygon fill="#63b8ff" stroke="#63b8ff" points="346.58,-73.7 336.11,-75.36 345.33,-80.58 346.58,-73.7"/>
</a>
</g>
</g>
<!-- Node12 -->
<g id="Node000012" class="node">
<title>Node12</title>
<g id="a_Node000012"><a xlink:title=" ">
<polygon fill="#e0e0e0" stroke="#999999" points="608,-76 568,-76 568,-56 608,-56 608,-76"/>
<text xml:space="preserve" text-anchor="middle" x="588" y="-62.5" font-family="Helvetica,sans-Serif" font-size="10.00">cfloat</text>
</a>
</g>
</g>
<!-- Node11&#45;&gt;Node12 -->
<g id="edge19_Node000011_Node000012" class="edge">
<title>Node11&#45;&gt;Node12</title>
<g id="a_edge19_Node000011_Node000012"><a xlink:title=" ">
<path fill="none" stroke="#63b8ff" d="M588,-111.59C588,-105.01 588,-95.96 588,-87.73"/>
<polygon fill="#63b8ff" stroke="#63b8ff" points="591.5,-87.81 588,-77.81 584.5,-87.81 591.5,-87.81"/>
</a>
</g>
</g>
<!-- Node13&#45;&gt;Node2 -->
<g id="edge26_Node000013_Node000002" class="edge">
<title>Node13&#45;&gt;Node2</title>
<g id="a_edge26_Node000013_Node000002"><a xlink:title=" ">
<path fill="none" stroke="#63b8ff" d="M263.9,-232.14C199.38,-227.84 91.66,-208.92 59,-132 43.24,-94.87 74.64,-52.03 96.15,-28.59"/>
<polygon fill="#63b8ff" stroke="#63b8ff" points="98.62,-31.08 103.01,-21.43 93.57,-26.23 98.62,-31.08"/>
</a>
</g>
</g>
<!-- Node13&#45;&gt;Node5 -->
<g id="edge23_Node000013_Node000005" class="edge">
<title>Node13&#45;&gt;Node5</title>
<g id="a_edge23_Node000013_Node000005"><a xlink:title=" ">
<path fill="none" stroke="#63b8ff" d="M331.69,-223.64C344.9,-215.79 362.43,-203.4 373,-188 382.17,-174.64 386.98,-156.83 389.46,-143.23"/>
<polygon fill="#63b8ff" stroke="#63b8ff" points="392.87,-144.08 390.91,-133.67 385.95,-143.03 392.87,-144.08"/>
</a>
</g>
</g>
<!-- Node13&#45;&gt;Node6 -->
<g id="edge21_Node000013_Node000006" class="edge">
<title>Node13&#45;&gt;Node6</title>
<g id="a_edge21_Node000013_Node000006"><a xlink:title=" ">
<path fill="none" stroke="#63b8ff" d="M305.78,-223.8C298.71,-215.23 289.04,-201.73 285,-188 274.94,-153.82 280.39,-111.87 285.22,-87.42"/>
<polygon fill="#63b8ff" stroke="#63b8ff" points="288.6,-88.35 287.29,-77.83 281.76,-86.87 288.6,-88.35"/>
</a>
</g>
</g>
<!-- Node13&#45;&gt;Node9 -->
<g id="edge24_Node000013_Node000009" class="edge">
<title>Node13&#45;&gt;Node9</title>
<g id="a_edge24_Node000013_Node000009"><a xlink:title=" ">
<path fill="none" stroke="#63b8ff" d="M316.61,-223.59C318.48,-216.86 321.07,-207.53 323.4,-199.15"/>
<polygon fill="#63b8ff" stroke="#63b8ff" points="326.71,-200.33 326.01,-189.76 319.96,-198.46 326.71,-200.33"/>
</a>
</g>
</g>
<!-- Node13&#45;&gt;Node10 -->
<g id="edge25_Node000013_Node000010" class="edge">
<title>Node13&#45;&gt;Node10</title>
<g id="a_edge25_Node000013_Node000010"><a xlink:title=" ">
<path fill="none" stroke="#63b8ff" d="M264.17,-226.26C217.31,-218.95 151.63,-205.88 133,-188 121.06,-176.54 116.51,-158.03 114.83,-143.69"/>
<polygon fill="#63b8ff" stroke="#63b8ff" points="118.33,-143.66 114.09,-133.95 111.35,-144.18 118.33,-143.66"/>
</a>
</g>
</g>
<!-- Node13&#45;&gt;Node11 -->
<g id="edge22_Node000013_Node000011" class="edge">
<title>Node13&#45;&gt;Node11</title>
<g id="a_edge22_Node000013_Node000011"><a xlink:title=" ">
<path fill="none" stroke="#63b8ff" d="M364.04,-230.95C431.27,-227.12 545.72,-216.51 575,-188 586.61,-176.7 589.38,-158.17 589.52,-143.78"/>
<polygon fill="#63b8ff" stroke="#63b8ff" points="593.03,-143.88 589.18,-134 586.03,-144.12 593.03,-143.88"/>
</a>
</g>
</g>
<!-- Node14&#45;&gt;Node4 -->
<g id="edge28_Node000014_Node000004" class="edge">
<title>Node14&#45;&gt;Node4</title>
<g id="a_edge28_Node000014_Node000004"><a xlink:title=" ">
<path fill="none" stroke="#63b8ff" d="M512.68,-167.62C513.96,-150.01 516.76,-111.59 518.5,-87.65"/>
<polygon fill="#63b8ff" stroke="#63b8ff" points="521.98,-88.09 519.21,-77.86 514.99,-87.58 521.98,-88.09"/>
</a>
</g>
</g>
<!-- Node14&#45;&gt;Node5 -->
<g id="edge32_Node000014_Node000005" class="edge">
<title>Node14&#45;&gt;Node5</title>
<g id="a_edge32_Node000014_Node000005"><a xlink:title=" ">
<path fill="none" stroke="#63b8ff" d="M491.1,-167.59C472.37,-159.17 444.64,-146.69 423.28,-137.07"/>
<polygon fill="#63b8ff" stroke="#63b8ff" points="425,-134.01 414.45,-133.1 422.13,-140.4 425,-134.01"/>
</a>
</g>
</g>
<!-- Node14&#45;&gt;Node6 -->
<g id="edge29_Node000014_Node000006" class="edge">
<title>Node14&#45;&gt;Node6</title>
<g id="a_edge29_Node000014_Node000006"><a xlink:title=" ">
<path fill="none" stroke="#63b8ff" d="M504.12,-167.62C491.83,-153.55 466.71,-127.04 440,-112 410.8,-95.56 374.95,-84.52 345.62,-77.49"/>
<polygon fill="#63b8ff" stroke="#63b8ff" points="346.73,-74.15 336.2,-75.32 345.16,-80.97 346.73,-74.15"/>
</a>
</g>
</g>
<!-- Node14&#45;&gt;Node10 -->
<g id="edge31_Node000014_Node000010" class="edge">
<title>Node14&#45;&gt;Node10</title>
<g id="a_edge31_Node000014_Node000010"><a xlink:title=" ">
<path fill="none" stroke="#63b8ff" d="M457.91,-169.66C382.91,-159.48 247.92,-141.17 171.27,-130.77"/>
<polygon fill="#63b8ff" stroke="#63b8ff" points="171.82,-127.31 161.44,-129.44 170.88,-134.25 171.82,-127.31"/>
</a>
</g>
</g>
<!-- Node14&#45;&gt;Node11 -->
<g id="edge30_Node000014_Node000011" class="edge">
<title>Node14&#45;&gt;Node11</title>
<g id="a_edge30_Node000014_Node000011"><a xlink:title=" ">
<path fill="none" stroke="#63b8ff" d="M525.24,-167.59C536.29,-159.74 552.28,-148.38 565.36,-139.09"/>
<polygon fill="#63b8ff" stroke="#63b8ff" points="567.3,-142 573.42,-133.36 563.25,-136.3 567.3,-142"/>
</a>
</g>
</g>
<!-- Node15&#45;&gt;Node2 -->
<g id="edge36_Node000015_Node000002" class="edge">
<title>Node15&#45;&gt;Node2</title>
<g id="a_edge36_Node000015_Node000002"><a xlink:title=" ">
<path fill="none" stroke="#63b8ff" d="M187.54,-167.54C184.07,-154.71 177.23,-131.18 169,-112 156.3,-82.43 137.8,-50.07 125.83,-30.14"/>
<polygon fill="#63b8ff" stroke="#63b8ff" points="128.9,-28.47 120.71,-21.74 122.92,-32.1 128.9,-28.47"/>
</a>
</g>
</g>
<!-- Node15&#45;&gt;Node5 -->
<g id="edge34_Node000015_Node000005" class="edge">
<title>Node15&#45;&gt;Node5</title>
<g id="a_edge34_Node000015_Node000005"><a xlink:title=" ">
<path fill="none" stroke="#63b8ff" d="M225.19,-167.59C258.58,-158.67 308.98,-145.19 345.64,-135.39"/>
<polygon fill="#63b8ff" stroke="#63b8ff" points="346.32,-138.83 355.08,-132.87 344.51,-132.07 346.32,-138.83"/>
</a>
</g>
</g>
<!-- Node15&#45;&gt;Node6 -->
<g id="edge35_Node000015_Node000006" class="edge">
<title>Node15&#45;&gt;Node6</title>
<g id="a_edge35_Node000015_Node000006"><a xlink:title=" ">
<path fill="none" stroke="#63b8ff" d="M198.53,-167.62C215.2,-149.27 252.39,-108.37 273.86,-84.75"/>
<polygon fill="#63b8ff" stroke="#63b8ff" points="276.34,-87.23 280.48,-77.47 271.16,-82.52 276.34,-87.23"/>
</a>
</g>
</g>
</g>
</svg>
